<mxfile host="Electron" agent="Mozilla/5.0 (X11; Linux x86_64) AppleWebKit/537.36 (KHTML, like Gecko) draw.io/26.0.9 Chrome/128.0.6613.186 Electron/32.2.5 Safari/537.36" version="26.0.9">
  <diagram name="Page-1" id="MsfHjtrxdxesR2Ng9KyY">
    <mxGraphModel dx="2917" dy="1602" grid="1" gridSize="10" guides="1" tooltips="1" connect="1" arrows="1" fold="1" page="1" pageScale="1" pageWidth="4681" pageHeight="3300" math="0" shadow="0">
      <root>
        <mxCell id="0" />
        <mxCell id="1" parent="0" />
        <mxCell id="b1h86Wo2CGf1PkXPqCOA-45" style="edgeStyle=orthogonalEdgeStyle;rounded=0;orthogonalLoop=1;jettySize=auto;html=1;entryX=0.5;entryY=0;entryDx=0;entryDy=0;" edge="1" parent="1" source="b1h86Wo2CGf1PkXPqCOA-30" target="b1h86Wo2CGf1PkXPqCOA-41">
          <mxGeometry relative="1" as="geometry" />
        </mxCell>
        <mxCell id="b1h86Wo2CGf1PkXPqCOA-30" value="&lt;span style=&quot;font-size: 20px;&quot;&gt;&lt;b&gt;Coal&lt;/b&gt;&lt;/span&gt;" style="ellipse;whiteSpace=wrap;html=1;aspect=fixed;" vertex="1" parent="1">
          <mxGeometry x="205" y="230" width="90" height="90" as="geometry" />
        </mxCell>
        <mxCell id="b1h86Wo2CGf1PkXPqCOA-46" style="edgeStyle=orthogonalEdgeStyle;rounded=0;orthogonalLoop=1;jettySize=auto;html=1;entryX=0.5;entryY=0;entryDx=0;entryDy=0;" edge="1" parent="1" source="b1h86Wo2CGf1PkXPqCOA-31" target="b1h86Wo2CGf1PkXPqCOA-30">
          <mxGeometry relative="1" as="geometry" />
        </mxCell>
        <mxCell id="b1h86Wo2CGf1PkXPqCOA-31" value="&lt;b&gt;&lt;font style=&quot;font-size: 20px;&quot;&gt;Coal&lt;/font&gt;&lt;/b&gt;&lt;div&gt;&lt;b&gt;&lt;font style=&quot;font-size: 20px;&quot;&gt;Ore&lt;/font&gt;&lt;/b&gt;&lt;/div&gt;" style="whiteSpace=wrap;html=1;aspect=fixed;" vertex="1" parent="1">
          <mxGeometry x="185" y="30" width="130" height="130" as="geometry" />
        </mxCell>
        <mxCell id="b1h86Wo2CGf1PkXPqCOA-34" value="&lt;b style=&quot;font-size: 20px;&quot;&gt;Carbon Shale&lt;/b&gt;" style="whiteSpace=wrap;html=1;aspect=fixed;" vertex="1" parent="1">
          <mxGeometry x="480" y="735" width="130" height="130" as="geometry" />
        </mxCell>
        <mxCell id="b1h86Wo2CGf1PkXPqCOA-48" style="edgeStyle=orthogonalEdgeStyle;rounded=0;orthogonalLoop=1;jettySize=auto;html=1;exitX=0.5;exitY=1;exitDx=0;exitDy=0;" edge="1" parent="1" source="b1h86Wo2CGf1PkXPqCOA-41" target="b1h86Wo2CGf1PkXPqCOA-47">
          <mxGeometry relative="1" as="geometry" />
        </mxCell>
        <mxCell id="b1h86Wo2CGf1PkXPqCOA-41" value="Crusher" style="swimlane;startSize=30;horizontal=1;containerType=tree;" vertex="1" parent="1">
          <mxGeometry x="50" y="440" width="400" height="240" as="geometry" />
        </mxCell>
        <mxCell id="b1h86Wo2CGf1PkXPqCOA-42" value="" style="edgeStyle=elbowEdgeStyle;elbow=vertical;sourcePerimeterSpacing=0;targetPerimeterSpacing=0;startArrow=none;endArrow=none;rounded=0;curved=0;strokeColor=default;dashed=1;" edge="1" parent="b1h86Wo2CGf1PkXPqCOA-41" source="b1h86Wo2CGf1PkXPqCOA-43" target="b1h86Wo2CGf1PkXPqCOA-44">
          <mxGeometry relative="1" as="geometry" />
        </mxCell>
        <mxCell id="b1h86Wo2CGf1PkXPqCOA-43" value="1x Coal" style="whiteSpace=wrap;html=1;treeFolding=1;treeMoving=1;newEdgeStyle={&quot;edgeStyle&quot;:&quot;elbowEdgeStyle&quot;,&quot;startArrow&quot;:&quot;none&quot;,&quot;endArrow&quot;:&quot;none&quot;};" vertex="1" parent="b1h86Wo2CGf1PkXPqCOA-41">
          <mxGeometry x="140" y="60" width="120" height="40" as="geometry" />
        </mxCell>
        <mxCell id="b1h86Wo2CGf1PkXPqCOA-44" value="1x Coal Dust" style="whiteSpace=wrap;html=1;treeFolding=1;treeMoving=1;newEdgeStyle={&quot;edgeStyle&quot;:&quot;elbowEdgeStyle&quot;,&quot;startArrow&quot;:&quot;none&quot;,&quot;endArrow&quot;:&quot;none&quot;};" vertex="1" parent="b1h86Wo2CGf1PkXPqCOA-41">
          <mxGeometry x="140" y="170" width="120" height="40" as="geometry" />
        </mxCell>
        <mxCell id="b1h86Wo2CGf1PkXPqCOA-54" style="edgeStyle=orthogonalEdgeStyle;rounded=0;orthogonalLoop=1;jettySize=auto;html=1;" edge="1" parent="1" source="b1h86Wo2CGf1PkXPqCOA-47" target="b1h86Wo2CGf1PkXPqCOA-50">
          <mxGeometry relative="1" as="geometry" />
        </mxCell>
        <mxCell id="b1h86Wo2CGf1PkXPqCOA-47" value="&lt;span style=&quot;font-size: 20px;&quot;&gt;&lt;b&gt;Coal&lt;/b&gt;&lt;/span&gt;&lt;div&gt;&lt;span style=&quot;font-size: 20px;&quot;&gt;&lt;b&gt;Dust&lt;/b&gt;&lt;/span&gt;&lt;/div&gt;" style="ellipse;whiteSpace=wrap;html=1;aspect=fixed;" vertex="1" parent="1">
          <mxGeometry x="205" y="760" width="90" height="90" as="geometry" />
        </mxCell>
        <mxCell id="b1h86Wo2CGf1PkXPqCOA-49" style="edgeStyle=orthogonalEdgeStyle;rounded=0;orthogonalLoop=1;jettySize=auto;html=1;entryX=0.981;entryY=0.444;entryDx=0;entryDy=0;entryPerimeter=0;" edge="1" parent="1" source="b1h86Wo2CGf1PkXPqCOA-34" target="b1h86Wo2CGf1PkXPqCOA-47">
          <mxGeometry relative="1" as="geometry" />
        </mxCell>
        <mxCell id="b1h86Wo2CGf1PkXPqCOA-56" style="edgeStyle=orthogonalEdgeStyle;rounded=0;orthogonalLoop=1;jettySize=auto;html=1;exitX=0.5;exitY=1;exitDx=0;exitDy=0;" edge="1" parent="1" source="b1h86Wo2CGf1PkXPqCOA-50" target="b1h86Wo2CGf1PkXPqCOA-55">
          <mxGeometry relative="1" as="geometry" />
        </mxCell>
        <mxCell id="b1h86Wo2CGf1PkXPqCOA-50" value="Blast Furnace" style="swimlane;startSize=30;horizontal=1;containerType=tree;" vertex="1" parent="1">
          <mxGeometry x="50" y="960" width="400" height="240" as="geometry" />
        </mxCell>
        <mxCell id="b1h86Wo2CGf1PkXPqCOA-51" value="" style="edgeStyle=elbowEdgeStyle;elbow=vertical;sourcePerimeterSpacing=0;targetPerimeterSpacing=0;startArrow=none;endArrow=none;rounded=0;curved=0;strokeColor=default;dashed=1;" edge="1" parent="b1h86Wo2CGf1PkXPqCOA-50" source="b1h86Wo2CGf1PkXPqCOA-52" target="b1h86Wo2CGf1PkXPqCOA-53">
          <mxGeometry relative="1" as="geometry" />
        </mxCell>
        <mxCell id="b1h86Wo2CGf1PkXPqCOA-52" value="1x Coal Dust" style="whiteSpace=wrap;html=1;treeFolding=1;treeMoving=1;newEdgeStyle={&quot;edgeStyle&quot;:&quot;elbowEdgeStyle&quot;,&quot;startArrow&quot;:&quot;none&quot;,&quot;endArrow&quot;:&quot;none&quot;};" vertex="1" parent="b1h86Wo2CGf1PkXPqCOA-50">
          <mxGeometry x="140" y="60" width="120" height="40" as="geometry" />
        </mxCell>
        <mxCell id="b1h86Wo2CGf1PkXPqCOA-53" value="1x Liquid Carbon" style="whiteSpace=wrap;html=1;treeFolding=1;treeMoving=1;newEdgeStyle={&quot;edgeStyle&quot;:&quot;elbowEdgeStyle&quot;,&quot;startArrow&quot;:&quot;none&quot;,&quot;endArrow&quot;:&quot;none&quot;};" vertex="1" parent="b1h86Wo2CGf1PkXPqCOA-50">
          <mxGeometry x="140" y="170" width="120" height="40" as="geometry" />
        </mxCell>
        <mxCell id="b1h86Wo2CGf1PkXPqCOA-65" style="edgeStyle=orthogonalEdgeStyle;rounded=0;orthogonalLoop=1;jettySize=auto;html=1;" edge="1" parent="1" source="b1h86Wo2CGf1PkXPqCOA-55" target="b1h86Wo2CGf1PkXPqCOA-61">
          <mxGeometry relative="1" as="geometry" />
        </mxCell>
        <mxCell id="b1h86Wo2CGf1PkXPqCOA-55" value="&lt;span style=&quot;font-size: 20px;&quot;&gt;&lt;b&gt;Liquid&lt;/b&gt;&lt;/span&gt;&lt;div&gt;&lt;span style=&quot;font-size: 20px;&quot;&gt;&lt;b&gt;Carbon&lt;/b&gt;&lt;/span&gt;&lt;/div&gt;" style="ellipse;whiteSpace=wrap;html=1;aspect=fixed;" vertex="1" parent="1">
          <mxGeometry x="205" y="1270" width="90" height="90" as="geometry" />
        </mxCell>
        <mxCell id="b1h86Wo2CGf1PkXPqCOA-71" style="edgeStyle=orthogonalEdgeStyle;rounded=0;orthogonalLoop=1;jettySize=auto;html=1;exitX=0.5;exitY=1;exitDx=0;exitDy=0;" edge="1" parent="1" source="b1h86Wo2CGf1PkXPqCOA-61" target="b1h86Wo2CGf1PkXPqCOA-70">
          <mxGeometry relative="1" as="geometry" />
        </mxCell>
        <mxCell id="b1h86Wo2CGf1PkXPqCOA-61" value="Blast Furnace" style="swimlane;startSize=30;horizontal=1;containerType=tree;" vertex="1" parent="1">
          <mxGeometry x="50" y="1470" width="400" height="240" as="geometry" />
        </mxCell>
        <mxCell id="b1h86Wo2CGf1PkXPqCOA-62" value="" style="edgeStyle=elbowEdgeStyle;elbow=vertical;sourcePerimeterSpacing=0;targetPerimeterSpacing=0;startArrow=none;endArrow=none;rounded=0;curved=0;strokeColor=default;dashed=1;" edge="1" parent="b1h86Wo2CGf1PkXPqCOA-61" source="b1h86Wo2CGf1PkXPqCOA-63" target="b1h86Wo2CGf1PkXPqCOA-64">
          <mxGeometry relative="1" as="geometry" />
        </mxCell>
        <mxCell id="b1h86Wo2CGf1PkXPqCOA-63" value="1x Liquid Carbon" style="whiteSpace=wrap;html=1;treeFolding=1;treeMoving=1;newEdgeStyle={&quot;edgeStyle&quot;:&quot;elbowEdgeStyle&quot;,&quot;startArrow&quot;:&quot;none&quot;,&quot;endArrow&quot;:&quot;none&quot;};" vertex="1" parent="b1h86Wo2CGf1PkXPqCOA-61">
          <mxGeometry x="140" y="60" width="120" height="40" as="geometry" />
        </mxCell>
        <mxCell id="b1h86Wo2CGf1PkXPqCOA-64" value="1x Graphite" style="whiteSpace=wrap;html=1;treeFolding=1;treeMoving=1;newEdgeStyle={&quot;edgeStyle&quot;:&quot;elbowEdgeStyle&quot;,&quot;startArrow&quot;:&quot;none&quot;,&quot;endArrow&quot;:&quot;none&quot;};" vertex="1" parent="b1h86Wo2CGf1PkXPqCOA-61">
          <mxGeometry x="140" y="170" width="120" height="40" as="geometry" />
        </mxCell>
        <mxCell id="b1h86Wo2CGf1PkXPqCOA-89" style="edgeStyle=orthogonalEdgeStyle;rounded=0;orthogonalLoop=1;jettySize=auto;html=1;exitX=0.5;exitY=1;exitDx=0;exitDy=0;entryX=0.5;entryY=0;entryDx=0;entryDy=0;" edge="1" parent="1" source="b1h86Wo2CGf1PkXPqCOA-66" target="b1h86Wo2CGf1PkXPqCOA-88">
          <mxGeometry relative="1" as="geometry" />
        </mxCell>
        <mxCell id="b1h86Wo2CGf1PkXPqCOA-66" value="Chemical Reactor" style="swimlane;startSize=30;horizontal=1;containerType=tree;" vertex="1" parent="1">
          <mxGeometry x="810" y="230" width="400" height="240" as="geometry" />
        </mxCell>
        <mxCell id="b1h86Wo2CGf1PkXPqCOA-67" value="" style="edgeStyle=elbowEdgeStyle;elbow=vertical;sourcePerimeterSpacing=0;targetPerimeterSpacing=0;startArrow=none;endArrow=none;rounded=0;curved=0;strokeColor=default;dashed=1;entryX=0.25;entryY=0;entryDx=0;entryDy=0;" edge="1" parent="b1h86Wo2CGf1PkXPqCOA-66" source="b1h86Wo2CGf1PkXPqCOA-68" target="b1h86Wo2CGf1PkXPqCOA-69">
          <mxGeometry relative="1" as="geometry">
            <Array as="points">
              <mxPoint x="70" y="130" />
            </Array>
          </mxGeometry>
        </mxCell>
        <mxCell id="b1h86Wo2CGf1PkXPqCOA-68" value="1x Graphite" style="whiteSpace=wrap;html=1;treeFolding=1;treeMoving=1;newEdgeStyle={&quot;edgeStyle&quot;:&quot;elbowEdgeStyle&quot;,&quot;startArrow&quot;:&quot;none&quot;,&quot;endArrow&quot;:&quot;none&quot;};" vertex="1" parent="b1h86Wo2CGf1PkXPqCOA-66">
          <mxGeometry x="10" y="60" width="120" height="40" as="geometry" />
        </mxCell>
        <mxCell id="b1h86Wo2CGf1PkXPqCOA-84" style="edgeStyle=elbowEdgeStyle;rounded=0;orthogonalLoop=1;jettySize=auto;html=1;startArrow=none;endArrow=none;entryX=0.5;entryY=1;entryDx=0;entryDy=0;dashed=1;" edge="1" parent="b1h86Wo2CGf1PkXPqCOA-66" target="b1h86Wo2CGf1PkXPqCOA-82">
          <mxGeometry relative="1" as="geometry">
            <mxPoint x="230" y="130" as="sourcePoint" />
            <Array as="points">
              <mxPoint x="330" y="140" />
            </Array>
          </mxGeometry>
        </mxCell>
        <mxCell id="b1h86Wo2CGf1PkXPqCOA-69" value="1x Graphene Suspension" style="whiteSpace=wrap;html=1;treeFolding=1;treeMoving=1;newEdgeStyle={&quot;edgeStyle&quot;:&quot;elbowEdgeStyle&quot;,&quot;startArrow&quot;:&quot;none&quot;,&quot;endArrow&quot;:&quot;none&quot;};" vertex="1" parent="b1h86Wo2CGf1PkXPqCOA-66">
          <mxGeometry x="140" y="170" width="120" height="40" as="geometry" />
        </mxCell>
        <mxCell id="b1h86Wo2CGf1PkXPqCOA-81" style="edgeStyle=elbowEdgeStyle;rounded=1;orthogonalLoop=1;jettySize=auto;html=1;startArrow=none;endArrow=none;entryX=0.5;entryY=0;entryDx=0;entryDy=0;curved=0;dashed=1;" edge="1" parent="b1h86Wo2CGf1PkXPqCOA-66" source="b1h86Wo2CGf1PkXPqCOA-80" target="b1h86Wo2CGf1PkXPqCOA-69">
          <mxGeometry relative="1" as="geometry" />
        </mxCell>
        <mxCell id="b1h86Wo2CGf1PkXPqCOA-80" value="1x Liquid Carbon" style="whiteSpace=wrap;html=1;treeFolding=1;treeMoving=1;newEdgeStyle={&quot;edgeStyle&quot;:&quot;elbowEdgeStyle&quot;,&quot;startArrow&quot;:&quot;none&quot;,&quot;endArrow&quot;:&quot;none&quot;};" vertex="1" parent="b1h86Wo2CGf1PkXPqCOA-66">
          <mxGeometry x="140" y="60" width="120" height="40" as="geometry" />
        </mxCell>
        <mxCell id="b1h86Wo2CGf1PkXPqCOA-82" value="1x Bucket of Water" style="whiteSpace=wrap;html=1;treeFolding=1;treeMoving=1;newEdgeStyle={&quot;edgeStyle&quot;:&quot;elbowEdgeStyle&quot;,&quot;startArrow&quot;:&quot;none&quot;,&quot;endArrow&quot;:&quot;none&quot;};" vertex="1" parent="b1h86Wo2CGf1PkXPqCOA-66">
          <mxGeometry x="270" y="60" width="120" height="40" as="geometry" />
        </mxCell>
        <mxCell id="b1h86Wo2CGf1PkXPqCOA-70" value="&lt;span style=&quot;font-size: 20px;&quot;&gt;&lt;b&gt;Graphite&lt;/b&gt;&lt;/span&gt;" style="ellipse;whiteSpace=wrap;html=1;aspect=fixed;" vertex="1" parent="1">
          <mxGeometry x="205" y="1820" width="90" height="90" as="geometry" />
        </mxCell>
        <mxCell id="b1h86Wo2CGf1PkXPqCOA-77" style="edgeStyle=orthogonalEdgeStyle;rounded=0;orthogonalLoop=1;jettySize=auto;html=1;entryX=0.25;entryY=0;entryDx=0;entryDy=0;" edge="1" parent="1" source="b1h86Wo2CGf1PkXPqCOA-72" target="b1h86Wo2CGf1PkXPqCOA-66">
          <mxGeometry relative="1" as="geometry" />
        </mxCell>
        <mxCell id="b1h86Wo2CGf1PkXPqCOA-72" value="&lt;span style=&quot;font-size: 20px;&quot;&gt;&lt;b&gt;Graphite&lt;/b&gt;&lt;/span&gt;" style="ellipse;whiteSpace=wrap;html=1;aspect=fixed;" vertex="1" parent="1">
          <mxGeometry x="790" y="30" width="90" height="90" as="geometry" />
        </mxCell>
        <mxCell id="b1h86Wo2CGf1PkXPqCOA-73" value="&lt;span style=&quot;font-size: 20px;&quot;&gt;&lt;b&gt;Liquid&lt;/b&gt;&lt;/span&gt;&lt;div&gt;&lt;span style=&quot;font-size: 20px;&quot;&gt;&lt;b&gt;Carbon&lt;/b&gt;&lt;/span&gt;&lt;/div&gt;" style="ellipse;whiteSpace=wrap;html=1;aspect=fixed;" vertex="1" parent="1">
          <mxGeometry x="960" y="30" width="90" height="90" as="geometry" />
        </mxCell>
        <mxCell id="b1h86Wo2CGf1PkXPqCOA-74" value="&lt;span style=&quot;font-size: 20px;&quot;&gt;&lt;b&gt;Bucket&lt;/b&gt;&lt;/span&gt;&lt;div&gt;&lt;span style=&quot;font-size: 20px;&quot;&gt;&lt;b&gt;of&lt;/b&gt;&lt;/span&gt;&lt;/div&gt;&lt;div&gt;&lt;span style=&quot;font-size: 20px;&quot;&gt;&lt;b&gt;Water&lt;/b&gt;&lt;/span&gt;&lt;/div&gt;" style="ellipse;whiteSpace=wrap;html=1;aspect=fixed;" vertex="1" parent="1">
          <mxGeometry x="1120" y="30" width="90" height="90" as="geometry" />
        </mxCell>
        <mxCell id="b1h86Wo2CGf1PkXPqCOA-78" style="edgeStyle=orthogonalEdgeStyle;rounded=0;orthogonalLoop=1;jettySize=auto;html=1;" edge="1" parent="1" source="b1h86Wo2CGf1PkXPqCOA-73">
          <mxGeometry relative="1" as="geometry">
            <mxPoint x="1005" y="230" as="targetPoint" />
          </mxGeometry>
        </mxCell>
        <mxCell id="b1h86Wo2CGf1PkXPqCOA-79" style="edgeStyle=orthogonalEdgeStyle;rounded=0;orthogonalLoop=1;jettySize=auto;html=1;entryX=0.767;entryY=0.008;entryDx=0;entryDy=0;entryPerimeter=0;" edge="1" parent="1" source="b1h86Wo2CGf1PkXPqCOA-74" target="b1h86Wo2CGf1PkXPqCOA-66">
          <mxGeometry relative="1" as="geometry" />
        </mxCell>
        <mxCell id="b1h86Wo2CGf1PkXPqCOA-87" value="" style="endArrow=none;dashed=1;html=1;rounded=0;exitX=0.75;exitY=0;exitDx=0;exitDy=0;" edge="1" parent="1" source="b1h86Wo2CGf1PkXPqCOA-69">
          <mxGeometry width="50" height="50" relative="1" as="geometry">
            <mxPoint x="950" y="270" as="sourcePoint" />
            <mxPoint x="1040" y="360" as="targetPoint" />
          </mxGeometry>
        </mxCell>
        <mxCell id="b1h86Wo2CGf1PkXPqCOA-88" value="&lt;span style=&quot;font-size: 20px;&quot;&gt;&lt;b&gt;Graphene&lt;/b&gt;&lt;/span&gt;&lt;div&gt;&lt;span style=&quot;font-size: 20px;&quot;&gt;&lt;b&gt;Suspension&lt;/b&gt;&lt;/span&gt;&lt;/div&gt;" style="ellipse;whiteSpace=wrap;html=1;aspect=fixed;" vertex="1" parent="1">
          <mxGeometry x="950" y="540" width="120" height="120" as="geometry" />
        </mxCell>
        <mxCell id="b1h86Wo2CGf1PkXPqCOA-118" style="edgeStyle=orthogonalEdgeStyle;rounded=0;orthogonalLoop=1;jettySize=auto;html=1;" edge="1" parent="1" source="b1h86Wo2CGf1PkXPqCOA-98" target="b1h86Wo2CGf1PkXPqCOA-117">
          <mxGeometry relative="1" as="geometry" />
        </mxCell>
        <mxCell id="b1h86Wo2CGf1PkXPqCOA-98" value="Filtration Machine" style="swimlane;startSize=30;horizontal=1;containerType=tree;" vertex="1" parent="1">
          <mxGeometry x="913" y="760" width="400" height="250" as="geometry" />
        </mxCell>
        <mxCell id="b1h86Wo2CGf1PkXPqCOA-115" style="edgeStyle=elbowEdgeStyle;rounded=0;orthogonalLoop=1;jettySize=auto;html=1;startArrow=none;endArrow=none;entryX=0.25;entryY=0;entryDx=0;entryDy=0;dashed=1;" edge="1" parent="b1h86Wo2CGf1PkXPqCOA-98" source="b1h86Wo2CGf1PkXPqCOA-100" target="b1h86Wo2CGf1PkXPqCOA-113">
          <mxGeometry relative="1" as="geometry" />
        </mxCell>
        <mxCell id="b1h86Wo2CGf1PkXPqCOA-100" value="1x Graphene Suspension" style="whiteSpace=wrap;html=1;treeFolding=1;treeMoving=1;newEdgeStyle={&quot;edgeStyle&quot;:&quot;elbowEdgeStyle&quot;,&quot;startArrow&quot;:&quot;none&quot;,&quot;endArrow&quot;:&quot;none&quot;};" vertex="1" parent="b1h86Wo2CGf1PkXPqCOA-98">
          <mxGeometry x="66" y="60" width="120" height="40" as="geometry" />
        </mxCell>
        <mxCell id="b1h86Wo2CGf1PkXPqCOA-105" value="1x Bucket of Water" style="whiteSpace=wrap;html=1;treeFolding=1;treeMoving=1;newEdgeStyle={&quot;edgeStyle&quot;:&quot;elbowEdgeStyle&quot;,&quot;startArrow&quot;:&quot;none&quot;,&quot;endArrow&quot;:&quot;none&quot;};" vertex="1" parent="b1h86Wo2CGf1PkXPqCOA-98">
          <mxGeometry x="216" y="60" width="120" height="40" as="geometry" />
        </mxCell>
        <mxCell id="b1h86Wo2CGf1PkXPqCOA-113" value="1x Graphene" style="whiteSpace=wrap;html=1;treeFolding=1;treeMoving=1;newEdgeStyle={&quot;edgeStyle&quot;:&quot;elbowEdgeStyle&quot;,&quot;startArrow&quot;:&quot;none&quot;,&quot;endArrow&quot;:&quot;none&quot;};" vertex="1" parent="b1h86Wo2CGf1PkXPqCOA-98">
          <mxGeometry x="140" y="170" width="120" height="40" as="geometry" />
        </mxCell>
        <mxCell id="b1h86Wo2CGf1PkXPqCOA-116" style="edgeStyle=elbowEdgeStyle;rounded=0;orthogonalLoop=1;jettySize=auto;html=1;startArrow=none;endArrow=none;entryX=0.744;entryY=-0.038;entryDx=0;entryDy=0;entryPerimeter=0;dashed=1;" edge="1" parent="b1h86Wo2CGf1PkXPqCOA-98" source="b1h86Wo2CGf1PkXPqCOA-105" target="b1h86Wo2CGf1PkXPqCOA-113">
          <mxGeometry relative="1" as="geometry" />
        </mxCell>
        <mxCell id="b1h86Wo2CGf1PkXPqCOA-106" value="&lt;span style=&quot;font-size: 20px;&quot;&gt;&lt;b&gt;Bucket&lt;/b&gt;&lt;/span&gt;&lt;div&gt;&lt;span style=&quot;font-size: 20px;&quot;&gt;&lt;b&gt;of&lt;/b&gt;&lt;/span&gt;&lt;/div&gt;&lt;div&gt;&lt;span style=&quot;font-size: 20px;&quot;&gt;&lt;b&gt;Water&lt;/b&gt;&lt;/span&gt;&lt;/div&gt;" style="ellipse;whiteSpace=wrap;html=1;aspect=fixed;" vertex="1" parent="1">
          <mxGeometry x="1172" y="555" width="90" height="90" as="geometry" />
        </mxCell>
        <mxCell id="b1h86Wo2CGf1PkXPqCOA-107" style="edgeStyle=orthogonalEdgeStyle;rounded=0;orthogonalLoop=1;jettySize=auto;html=1;entryX=0.241;entryY=0.007;entryDx=0;entryDy=0;entryPerimeter=0;" edge="1" parent="1" source="b1h86Wo2CGf1PkXPqCOA-88" target="b1h86Wo2CGf1PkXPqCOA-98">
          <mxGeometry relative="1" as="geometry" />
        </mxCell>
        <mxCell id="b1h86Wo2CGf1PkXPqCOA-108" style="edgeStyle=orthogonalEdgeStyle;rounded=0;orthogonalLoop=1;jettySize=auto;html=1;entryX=0.76;entryY=0.007;entryDx=0;entryDy=0;entryPerimeter=0;" edge="1" parent="1" source="b1h86Wo2CGf1PkXPqCOA-106" target="b1h86Wo2CGf1PkXPqCOA-98">
          <mxGeometry relative="1" as="geometry" />
        </mxCell>
        <mxCell id="b1h86Wo2CGf1PkXPqCOA-117" value="&lt;b style=&quot;font-size: 20px; background-color: transparent; color: light-dark(rgb(0, 0, 0), rgb(255, 255, 255));&quot;&gt;Graphene&lt;/b&gt;" style="ellipse;whiteSpace=wrap;html=1;aspect=fixed;" vertex="1" parent="1">
          <mxGeometry x="1058" y="1130" width="110" height="110" as="geometry" />
        </mxCell>
        <mxCell id="b1h86Wo2CGf1PkXPqCOA-125" style="edgeStyle=orthogonalEdgeStyle;rounded=0;orthogonalLoop=1;jettySize=auto;html=1;" edge="1" parent="1" source="b1h86Wo2CGf1PkXPqCOA-119" target="b1h86Wo2CGf1PkXPqCOA-124">
          <mxGeometry relative="1" as="geometry" />
        </mxCell>
        <mxCell id="b1h86Wo2CGf1PkXPqCOA-119" value="Compressor" style="swimlane;startSize=30;horizontal=1;containerType=tree;" vertex="1" parent="1">
          <mxGeometry x="913" y="1370" width="400" height="240" as="geometry" />
        </mxCell>
        <mxCell id="b1h86Wo2CGf1PkXPqCOA-120" value="" style="edgeStyle=elbowEdgeStyle;elbow=vertical;sourcePerimeterSpacing=0;targetPerimeterSpacing=0;startArrow=none;endArrow=none;rounded=0;curved=0;strokeColor=default;dashed=1;" edge="1" parent="b1h86Wo2CGf1PkXPqCOA-119" source="b1h86Wo2CGf1PkXPqCOA-121" target="b1h86Wo2CGf1PkXPqCOA-122">
          <mxGeometry relative="1" as="geometry" />
        </mxCell>
        <mxCell id="b1h86Wo2CGf1PkXPqCOA-121" value="2x Graphene" style="whiteSpace=wrap;html=1;treeFolding=1;treeMoving=1;newEdgeStyle={&quot;edgeStyle&quot;:&quot;elbowEdgeStyle&quot;,&quot;startArrow&quot;:&quot;none&quot;,&quot;endArrow&quot;:&quot;none&quot;};" vertex="1" parent="b1h86Wo2CGf1PkXPqCOA-119">
          <mxGeometry x="140" y="60" width="120" height="40" as="geometry" />
        </mxCell>
        <mxCell id="b1h86Wo2CGf1PkXPqCOA-122" value="1x Graphene Plate" style="whiteSpace=wrap;html=1;treeFolding=1;treeMoving=1;newEdgeStyle={&quot;edgeStyle&quot;:&quot;elbowEdgeStyle&quot;,&quot;startArrow&quot;:&quot;none&quot;,&quot;endArrow&quot;:&quot;none&quot;};" vertex="1" parent="b1h86Wo2CGf1PkXPqCOA-119">
          <mxGeometry x="140" y="170" width="120" height="40" as="geometry" />
        </mxCell>
        <mxCell id="b1h86Wo2CGf1PkXPqCOA-123" style="edgeStyle=orthogonalEdgeStyle;rounded=0;orthogonalLoop=1;jettySize=auto;html=1;exitX=0.5;exitY=1;exitDx=0;exitDy=0;entryX=0.5;entryY=0.013;entryDx=0;entryDy=0;entryPerimeter=0;" edge="1" parent="1" source="b1h86Wo2CGf1PkXPqCOA-117" target="b1h86Wo2CGf1PkXPqCOA-119">
          <mxGeometry relative="1" as="geometry" />
        </mxCell>
        <mxCell id="b1h86Wo2CGf1PkXPqCOA-154" style="edgeStyle=orthogonalEdgeStyle;rounded=0;orthogonalLoop=1;jettySize=auto;html=1;entryX=0.25;entryY=0;entryDx=0;entryDy=0;" edge="1" parent="1" source="b1h86Wo2CGf1PkXPqCOA-124" target="b1h86Wo2CGf1PkXPqCOA-149">
          <mxGeometry relative="1" as="geometry" />
        </mxCell>
        <mxCell id="b1h86Wo2CGf1PkXPqCOA-124" value="&lt;span style=&quot;font-size: 20px;&quot;&gt;&lt;b&gt;Graphene&lt;/b&gt;&lt;/span&gt;&lt;div&gt;&lt;span style=&quot;font-size: 20px;&quot;&gt;&lt;b&gt;Plate&lt;/b&gt;&lt;/span&gt;&lt;/div&gt;" style="ellipse;whiteSpace=wrap;html=1;aspect=fixed;" vertex="1" parent="1">
          <mxGeometry x="1058" y="1711" width="110" height="110" as="geometry" />
        </mxCell>
        <mxCell id="b1h86Wo2CGf1PkXPqCOA-131" style="edgeStyle=orthogonalEdgeStyle;rounded=0;orthogonalLoop=1;jettySize=auto;html=1;" edge="1" parent="1" source="b1h86Wo2CGf1PkXPqCOA-126" target="b1h86Wo2CGf1PkXPqCOA-127">
          <mxGeometry relative="1" as="geometry" />
        </mxCell>
        <mxCell id="b1h86Wo2CGf1PkXPqCOA-126" value="&lt;span style=&quot;font-size: 20px;&quot;&gt;&lt;b&gt;Tree&lt;/b&gt;&lt;/span&gt;&lt;div&gt;&lt;span style=&quot;font-size: 20px;&quot;&gt;&lt;b&gt;Bark&lt;/b&gt;&lt;/span&gt;&lt;/div&gt;" style="ellipse;whiteSpace=wrap;html=1;aspect=fixed;" vertex="1" parent="1">
          <mxGeometry x="1471" y="60" width="110" height="110" as="geometry" />
        </mxCell>
        <mxCell id="b1h86Wo2CGf1PkXPqCOA-139" style="edgeStyle=orthogonalEdgeStyle;rounded=0;orthogonalLoop=1;jettySize=auto;html=1;exitX=0.5;exitY=1;exitDx=0;exitDy=0;" edge="1" parent="1" source="b1h86Wo2CGf1PkXPqCOA-127" target="b1h86Wo2CGf1PkXPqCOA-138">
          <mxGeometry relative="1" as="geometry" />
        </mxCell>
        <mxCell id="b1h86Wo2CGf1PkXPqCOA-127" value="Furnance" style="swimlane;startSize=30;horizontal=1;containerType=tree;" vertex="1" parent="1">
          <mxGeometry x="1326" y="250" width="400" height="240" as="geometry" />
        </mxCell>
        <mxCell id="b1h86Wo2CGf1PkXPqCOA-128" value="" style="edgeStyle=elbowEdgeStyle;elbow=vertical;sourcePerimeterSpacing=0;targetPerimeterSpacing=0;startArrow=none;endArrow=none;rounded=0;curved=0;strokeColor=default;dashed=1;" edge="1" parent="b1h86Wo2CGf1PkXPqCOA-127" source="b1h86Wo2CGf1PkXPqCOA-129" target="b1h86Wo2CGf1PkXPqCOA-130">
          <mxGeometry relative="1" as="geometry" />
        </mxCell>
        <mxCell id="b1h86Wo2CGf1PkXPqCOA-129" value="1x Tree Bark" style="whiteSpace=wrap;html=1;treeFolding=1;treeMoving=1;newEdgeStyle={&quot;edgeStyle&quot;:&quot;elbowEdgeStyle&quot;,&quot;startArrow&quot;:&quot;none&quot;,&quot;endArrow&quot;:&quot;none&quot;};" vertex="1" parent="b1h86Wo2CGf1PkXPqCOA-127">
          <mxGeometry x="140" y="60" width="120" height="40" as="geometry" />
        </mxCell>
        <mxCell id="b1h86Wo2CGf1PkXPqCOA-130" value="1x Tree Resine" style="whiteSpace=wrap;html=1;treeFolding=1;treeMoving=1;newEdgeStyle={&quot;edgeStyle&quot;:&quot;elbowEdgeStyle&quot;,&quot;startArrow&quot;:&quot;none&quot;,&quot;endArrow&quot;:&quot;none&quot;};" vertex="1" parent="b1h86Wo2CGf1PkXPqCOA-127">
          <mxGeometry x="140" y="170" width="120" height="40" as="geometry" />
        </mxCell>
        <mxCell id="b1h86Wo2CGf1PkXPqCOA-132" value="Chemical Reactor" style="swimlane;startSize=30;horizontal=1;containerType=tree;" vertex="1" parent="1">
          <mxGeometry x="1366" y="895" width="400" height="250" as="geometry" />
        </mxCell>
        <mxCell id="b1h86Wo2CGf1PkXPqCOA-133" style="edgeStyle=elbowEdgeStyle;rounded=0;orthogonalLoop=1;jettySize=auto;html=1;startArrow=none;endArrow=none;entryX=0.25;entryY=0;entryDx=0;entryDy=0;dashed=1;" edge="1" parent="b1h86Wo2CGf1PkXPqCOA-132" source="b1h86Wo2CGf1PkXPqCOA-134" target="b1h86Wo2CGf1PkXPqCOA-136">
          <mxGeometry relative="1" as="geometry" />
        </mxCell>
        <mxCell id="b1h86Wo2CGf1PkXPqCOA-134" value="1x Tree Resine" style="whiteSpace=wrap;html=1;treeFolding=1;treeMoving=1;newEdgeStyle={&quot;edgeStyle&quot;:&quot;elbowEdgeStyle&quot;,&quot;startArrow&quot;:&quot;none&quot;,&quot;endArrow&quot;:&quot;none&quot;};" vertex="1" parent="b1h86Wo2CGf1PkXPqCOA-132">
          <mxGeometry x="66" y="60" width="120" height="40" as="geometry" />
        </mxCell>
        <mxCell id="b1h86Wo2CGf1PkXPqCOA-135" value="1x Bucket of Water" style="whiteSpace=wrap;html=1;treeFolding=1;treeMoving=1;newEdgeStyle={&quot;edgeStyle&quot;:&quot;elbowEdgeStyle&quot;,&quot;startArrow&quot;:&quot;none&quot;,&quot;endArrow&quot;:&quot;none&quot;};" vertex="1" parent="b1h86Wo2CGf1PkXPqCOA-132">
          <mxGeometry x="216" y="60" width="120" height="40" as="geometry" />
        </mxCell>
        <mxCell id="b1h86Wo2CGf1PkXPqCOA-136" value="4x Polymer Thread" style="whiteSpace=wrap;html=1;treeFolding=1;treeMoving=1;newEdgeStyle={&quot;edgeStyle&quot;:&quot;elbowEdgeStyle&quot;,&quot;startArrow&quot;:&quot;none&quot;,&quot;endArrow&quot;:&quot;none&quot;};" vertex="1" parent="b1h86Wo2CGf1PkXPqCOA-132">
          <mxGeometry x="140" y="170" width="120" height="40" as="geometry" />
        </mxCell>
        <mxCell id="b1h86Wo2CGf1PkXPqCOA-137" style="edgeStyle=elbowEdgeStyle;rounded=0;orthogonalLoop=1;jettySize=auto;html=1;startArrow=none;endArrow=none;entryX=0.744;entryY=-0.038;entryDx=0;entryDy=0;entryPerimeter=0;dashed=1;" edge="1" parent="b1h86Wo2CGf1PkXPqCOA-132" source="b1h86Wo2CGf1PkXPqCOA-135" target="b1h86Wo2CGf1PkXPqCOA-136">
          <mxGeometry relative="1" as="geometry" />
        </mxCell>
        <mxCell id="b1h86Wo2CGf1PkXPqCOA-141" style="edgeStyle=orthogonalEdgeStyle;rounded=0;orthogonalLoop=1;jettySize=auto;html=1;entryX=0.25;entryY=0;entryDx=0;entryDy=0;" edge="1" parent="1" source="b1h86Wo2CGf1PkXPqCOA-138" target="b1h86Wo2CGf1PkXPqCOA-132">
          <mxGeometry relative="1" as="geometry" />
        </mxCell>
        <mxCell id="b1h86Wo2CGf1PkXPqCOA-138" value="&lt;span style=&quot;font-size: 20px;&quot;&gt;&lt;b&gt;Tree Resine&lt;/b&gt;&lt;/span&gt;" style="ellipse;whiteSpace=wrap;html=1;aspect=fixed;" vertex="1" parent="1">
          <mxGeometry x="1410" y="575" width="110" height="110" as="geometry" />
        </mxCell>
        <mxCell id="b1h86Wo2CGf1PkXPqCOA-143" value="&lt;span style=&quot;font-size: 20px;&quot;&gt;&lt;b&gt;Bucket&lt;/b&gt;&lt;/span&gt;&lt;div&gt;&lt;span style=&quot;font-size: 20px;&quot;&gt;&lt;b&gt;of&lt;/b&gt;&lt;/span&gt;&lt;/div&gt;&lt;div&gt;&lt;span style=&quot;font-size: 20px;&quot;&gt;&lt;b&gt;Water&lt;/b&gt;&lt;/span&gt;&lt;/div&gt;" style="ellipse;whiteSpace=wrap;html=1;aspect=fixed;" vertex="1" parent="1">
          <mxGeometry x="1610" y="570" width="110" height="110" as="geometry" />
        </mxCell>
        <mxCell id="b1h86Wo2CGf1PkXPqCOA-144" style="edgeStyle=orthogonalEdgeStyle;rounded=0;orthogonalLoop=1;jettySize=auto;html=1;entryX=0.747;entryY=0.001;entryDx=0;entryDy=0;entryPerimeter=0;" edge="1" parent="1" target="b1h86Wo2CGf1PkXPqCOA-132">
          <mxGeometry relative="1" as="geometry">
            <mxPoint x="1664" y="681" as="sourcePoint" />
            <mxPoint x="1665" y="891" as="targetPoint" />
          </mxGeometry>
        </mxCell>
        <mxCell id="b1h86Wo2CGf1PkXPqCOA-165" style="edgeStyle=orthogonalEdgeStyle;rounded=0;orthogonalLoop=1;jettySize=auto;html=1;" edge="1" parent="1" source="b1h86Wo2CGf1PkXPqCOA-149" target="b1h86Wo2CGf1PkXPqCOA-164">
          <mxGeometry relative="1" as="geometry" />
        </mxCell>
        <mxCell id="b1h86Wo2CGf1PkXPqCOA-149" value="Crafting Table" style="swimlane;startSize=30;horizontal=1;containerType=tree;" vertex="1" parent="1">
          <mxGeometry x="1274" y="1980" width="400" height="240" as="geometry" />
        </mxCell>
        <mxCell id="b1h86Wo2CGf1PkXPqCOA-150" value="" style="edgeStyle=elbowEdgeStyle;elbow=vertical;sourcePerimeterSpacing=0;targetPerimeterSpacing=0;startArrow=none;endArrow=none;rounded=0;curved=0;strokeColor=default;dashed=1;" edge="1" parent="b1h86Wo2CGf1PkXPqCOA-149">
          <mxGeometry relative="1" as="geometry">
            <mxPoint x="126" y="102" as="sourcePoint" />
            <mxPoint x="200" y="172" as="targetPoint" />
          </mxGeometry>
        </mxCell>
        <mxCell id="b1h86Wo2CGf1PkXPqCOA-151" value="2x Graphene plate" style="whiteSpace=wrap;html=1;treeFolding=1;treeMoving=1;newEdgeStyle={&quot;edgeStyle&quot;:&quot;elbowEdgeStyle&quot;,&quot;startArrow&quot;:&quot;none&quot;,&quot;endArrow&quot;:&quot;none&quot;};" vertex="1" parent="b1h86Wo2CGf1PkXPqCOA-149">
          <mxGeometry x="66" y="60" width="120" height="40" as="geometry" />
        </mxCell>
        <mxCell id="b1h86Wo2CGf1PkXPqCOA-152" value="1x Graphene Composite Blank" style="whiteSpace=wrap;html=1;treeFolding=1;treeMoving=1;newEdgeStyle={&quot;edgeStyle&quot;:&quot;elbowEdgeStyle&quot;,&quot;startArrow&quot;:&quot;none&quot;,&quot;endArrow&quot;:&quot;none&quot;};" vertex="1" parent="b1h86Wo2CGf1PkXPqCOA-149">
          <mxGeometry x="140" y="170" width="120" height="40" as="geometry" />
        </mxCell>
        <mxCell id="b1h86Wo2CGf1PkXPqCOA-158" value="4x Polymer Thread" style="whiteSpace=wrap;html=1;treeFolding=1;treeMoving=1;newEdgeStyle={&quot;edgeStyle&quot;:&quot;elbowEdgeStyle&quot;,&quot;startArrow&quot;:&quot;none&quot;,&quot;endArrow&quot;:&quot;none&quot;};" vertex="1" parent="b1h86Wo2CGf1PkXPqCOA-149">
          <mxGeometry x="246" y="60" width="120" height="40" as="geometry" />
        </mxCell>
        <mxCell id="b1h86Wo2CGf1PkXPqCOA-161" value="" style="endArrow=none;dashed=1;html=1;rounded=0;entryX=0.5;entryY=1;entryDx=0;entryDy=0;" edge="1" parent="b1h86Wo2CGf1PkXPqCOA-149" target="b1h86Wo2CGf1PkXPqCOA-158">
          <mxGeometry width="50" height="50" relative="1" as="geometry">
            <mxPoint x="306" y="140" as="sourcePoint" />
            <mxPoint x="316" y="120" as="targetPoint" />
          </mxGeometry>
        </mxCell>
        <mxCell id="b1h86Wo2CGf1PkXPqCOA-162" value="" style="endArrow=none;dashed=1;html=1;rounded=0;" edge="1" parent="b1h86Wo2CGf1PkXPqCOA-149">
          <mxGeometry width="50" height="50" relative="1" as="geometry">
            <mxPoint x="226" y="140" as="sourcePoint" />
            <mxPoint x="306" y="140" as="targetPoint" />
          </mxGeometry>
        </mxCell>
        <mxCell id="b1h86Wo2CGf1PkXPqCOA-163" value="" style="endArrow=none;dashed=1;html=1;rounded=0;exitX=0.75;exitY=0;exitDx=0;exitDy=0;" edge="1" parent="b1h86Wo2CGf1PkXPqCOA-149">
          <mxGeometry width="50" height="50" relative="1" as="geometry">
            <mxPoint x="226" y="170" as="sourcePoint" />
            <mxPoint x="226" y="140" as="targetPoint" />
          </mxGeometry>
        </mxCell>
        <mxCell id="b1h86Wo2CGf1PkXPqCOA-155" value="&lt;span style=&quot;font-size: 20px;&quot;&gt;&lt;b&gt;Polymer&lt;/b&gt;&lt;/span&gt;&lt;div&gt;&lt;span style=&quot;font-size: 20px;&quot;&gt;&lt;b&gt;Thread&lt;/b&gt;&lt;/span&gt;&lt;/div&gt;" style="ellipse;whiteSpace=wrap;html=1;aspect=fixed;" vertex="1" parent="1">
          <mxGeometry x="1511" y="1270" width="110" height="110" as="geometry" />
        </mxCell>
        <mxCell id="b1h86Wo2CGf1PkXPqCOA-156" style="edgeStyle=orthogonalEdgeStyle;rounded=0;orthogonalLoop=1;jettySize=auto;html=1;" edge="1" parent="1" source="b1h86Wo2CGf1PkXPqCOA-132">
          <mxGeometry relative="1" as="geometry">
            <mxPoint x="1567" y="1270" as="targetPoint" />
          </mxGeometry>
        </mxCell>
        <mxCell id="b1h86Wo2CGf1PkXPqCOA-157" style="edgeStyle=orthogonalEdgeStyle;rounded=0;orthogonalLoop=1;jettySize=auto;html=1;entryX=0.73;entryY=0.007;entryDx=0;entryDy=0;entryPerimeter=0;" edge="1" parent="1" source="b1h86Wo2CGf1PkXPqCOA-155" target="b1h86Wo2CGf1PkXPqCOA-149">
          <mxGeometry relative="1" as="geometry" />
        </mxCell>
        <mxCell id="b1h86Wo2CGf1PkXPqCOA-170" style="edgeStyle=orthogonalEdgeStyle;rounded=0;orthogonalLoop=1;jettySize=auto;html=1;" edge="1" parent="1" source="b1h86Wo2CGf1PkXPqCOA-164" target="b1h86Wo2CGf1PkXPqCOA-166">
          <mxGeometry relative="1" as="geometry" />
        </mxCell>
        <mxCell id="b1h86Wo2CGf1PkXPqCOA-164" value="&lt;span style=&quot;font-size: 20px;&quot;&gt;&lt;b&gt;Graphene&lt;/b&gt;&lt;/span&gt;&lt;div&gt;&lt;span style=&quot;font-size: 20px;&quot;&gt;&lt;b&gt;Composite&lt;/b&gt;&lt;/span&gt;&lt;/div&gt;&lt;div&gt;&lt;span style=&quot;font-size: 20px;&quot;&gt;&lt;b&gt;Blank&lt;/b&gt;&lt;/span&gt;&lt;/div&gt;" style="ellipse;whiteSpace=wrap;html=1;aspect=fixed;" vertex="1" parent="1">
          <mxGeometry x="1414" y="2290" width="120" height="120" as="geometry" />
        </mxCell>
        <mxCell id="b1h86Wo2CGf1PkXPqCOA-166" value="Compressor" style="swimlane;startSize=30;horizontal=1;containerType=tree;" vertex="1" parent="1">
          <mxGeometry x="1274" y="2530" width="400" height="240" as="geometry" />
        </mxCell>
        <mxCell id="b1h86Wo2CGf1PkXPqCOA-167" value="" style="edgeStyle=elbowEdgeStyle;elbow=vertical;sourcePerimeterSpacing=0;targetPerimeterSpacing=0;startArrow=none;endArrow=none;rounded=0;curved=0;strokeColor=default;dashed=1;" edge="1" parent="b1h86Wo2CGf1PkXPqCOA-166" source="b1h86Wo2CGf1PkXPqCOA-168" target="b1h86Wo2CGf1PkXPqCOA-169">
          <mxGeometry relative="1" as="geometry" />
        </mxCell>
        <mxCell id="b1h86Wo2CGf1PkXPqCOA-168" value="1x Graphene Composite Blank" style="whiteSpace=wrap;html=1;treeFolding=1;treeMoving=1;newEdgeStyle={&quot;edgeStyle&quot;:&quot;elbowEdgeStyle&quot;,&quot;startArrow&quot;:&quot;none&quot;,&quot;endArrow&quot;:&quot;none&quot;};" vertex="1" parent="b1h86Wo2CGf1PkXPqCOA-166">
          <mxGeometry x="140" y="60" width="120" height="40" as="geometry" />
        </mxCell>
        <mxCell id="b1h86Wo2CGf1PkXPqCOA-169" value="1x Graphene Composite" style="whiteSpace=wrap;html=1;treeFolding=1;treeMoving=1;newEdgeStyle={&quot;edgeStyle&quot;:&quot;elbowEdgeStyle&quot;,&quot;startArrow&quot;:&quot;none&quot;,&quot;endArrow&quot;:&quot;none&quot;};" vertex="1" parent="b1h86Wo2CGf1PkXPqCOA-166">
          <mxGeometry x="140" y="170" width="120" height="40" as="geometry" />
        </mxCell>
        <mxCell id="b1h86Wo2CGf1PkXPqCOA-196" style="edgeStyle=orthogonalEdgeStyle;rounded=0;orthogonalLoop=1;jettySize=auto;html=1;entryX=0.5;entryY=0;entryDx=0;entryDy=0;" edge="1" parent="1" source="b1h86Wo2CGf1PkXPqCOA-187" target="b1h86Wo2CGf1PkXPqCOA-195">
          <mxGeometry relative="1" as="geometry" />
        </mxCell>
        <mxCell id="b1h86Wo2CGf1PkXPqCOA-187" value="Crafting Table" style="swimlane;startSize=30;horizontal=1;containerType=tree;" vertex="1" parent="1">
          <mxGeometry x="1920" y="220" width="400" height="240" as="geometry" />
        </mxCell>
        <mxCell id="b1h86Wo2CGf1PkXPqCOA-188" value="" style="edgeStyle=elbowEdgeStyle;elbow=vertical;sourcePerimeterSpacing=0;targetPerimeterSpacing=0;startArrow=none;endArrow=none;rounded=0;curved=0;strokeColor=default;dashed=1;" edge="1" parent="b1h86Wo2CGf1PkXPqCOA-187" source="b1h86Wo2CGf1PkXPqCOA-189" target="b1h86Wo2CGf1PkXPqCOA-190">
          <mxGeometry relative="1" as="geometry" />
        </mxCell>
        <mxCell id="b1h86Wo2CGf1PkXPqCOA-189" value="4x Graphene Composite" style="whiteSpace=wrap;html=1;treeFolding=1;treeMoving=1;newEdgeStyle={&quot;edgeStyle&quot;:&quot;elbowEdgeStyle&quot;,&quot;startArrow&quot;:&quot;none&quot;,&quot;endArrow&quot;:&quot;none&quot;};" vertex="1" parent="b1h86Wo2CGf1PkXPqCOA-187">
          <mxGeometry x="140" y="60" width="120" height="40" as="geometry" />
        </mxCell>
        <mxCell id="b1h86Wo2CGf1PkXPqCOA-190" value="1x Graphene Boots" style="whiteSpace=wrap;html=1;treeFolding=1;treeMoving=1;newEdgeStyle={&quot;edgeStyle&quot;:&quot;elbowEdgeStyle&quot;,&quot;startArrow&quot;:&quot;none&quot;,&quot;endArrow&quot;:&quot;none&quot;};" vertex="1" parent="b1h86Wo2CGf1PkXPqCOA-187">
          <mxGeometry x="140" y="170" width="120" height="40" as="geometry" />
        </mxCell>
        <mxCell id="b1h86Wo2CGf1PkXPqCOA-191" value="&lt;span style=&quot;font-size: 20px;&quot;&gt;&lt;b&gt;Graphene&lt;/b&gt;&lt;/span&gt;&lt;div&gt;&lt;span style=&quot;font-size: 20px;&quot;&gt;&lt;b&gt;Composite&lt;/b&gt;&lt;/span&gt;&lt;/div&gt;" style="ellipse;whiteSpace=wrap;html=1;aspect=fixed;" vertex="1" parent="1">
          <mxGeometry x="1414" y="2880" width="120" height="120" as="geometry" />
        </mxCell>
        <mxCell id="b1h86Wo2CGf1PkXPqCOA-192" style="edgeStyle=orthogonalEdgeStyle;rounded=0;orthogonalLoop=1;jettySize=auto;html=1;entryX=0.495;entryY=0.011;entryDx=0;entryDy=0;entryPerimeter=0;" edge="1" parent="1" source="b1h86Wo2CGf1PkXPqCOA-166" target="b1h86Wo2CGf1PkXPqCOA-191">
          <mxGeometry relative="1" as="geometry" />
        </mxCell>
        <mxCell id="b1h86Wo2CGf1PkXPqCOA-194" style="edgeStyle=orthogonalEdgeStyle;rounded=0;orthogonalLoop=1;jettySize=auto;html=1;" edge="1" parent="1" source="b1h86Wo2CGf1PkXPqCOA-193" target="b1h86Wo2CGf1PkXPqCOA-187">
          <mxGeometry relative="1" as="geometry" />
        </mxCell>
        <mxCell id="b1h86Wo2CGf1PkXPqCOA-193" value="&lt;span style=&quot;font-size: 20px;&quot;&gt;&lt;b&gt;Graphene&lt;/b&gt;&lt;/span&gt;&lt;div&gt;&lt;span style=&quot;font-size: 20px;&quot;&gt;&lt;b&gt;Composite&lt;/b&gt;&lt;/span&gt;&lt;/div&gt;" style="ellipse;whiteSpace=wrap;html=1;aspect=fixed;" vertex="1" parent="1">
          <mxGeometry x="2060" y="40" width="120" height="120" as="geometry" />
        </mxCell>
        <mxCell id="b1h86Wo2CGf1PkXPqCOA-195" value="&lt;span style=&quot;font-size: 20px;&quot;&gt;&lt;b&gt;Graphene&lt;/b&gt;&lt;/span&gt;&lt;div&gt;&lt;span style=&quot;font-size: 20px;&quot;&gt;&lt;b&gt;Boots&lt;/b&gt;&lt;/span&gt;&lt;/div&gt;" style="ellipse;whiteSpace=wrap;html=1;aspect=fixed;" vertex="1" parent="1">
          <mxGeometry x="2065" y="540" width="110" height="110" as="geometry" />
        </mxCell>
        <mxCell id="b1h86Wo2CGf1PkXPqCOA-211" style="edgeStyle=orthogonalEdgeStyle;rounded=0;orthogonalLoop=1;jettySize=auto;html=1;entryX=0.5;entryY=0;entryDx=0;entryDy=0;" edge="1" parent="1" source="b1h86Wo2CGf1PkXPqCOA-212" target="b1h86Wo2CGf1PkXPqCOA-218">
          <mxGeometry relative="1" as="geometry" />
        </mxCell>
        <mxCell id="b1h86Wo2CGf1PkXPqCOA-212" value="Crafting Table" style="swimlane;startSize=30;horizontal=1;containerType=tree;" vertex="1" parent="1">
          <mxGeometry x="2370" y="225" width="400" height="240" as="geometry" />
        </mxCell>
        <mxCell id="b1h86Wo2CGf1PkXPqCOA-213" value="" style="edgeStyle=elbowEdgeStyle;elbow=vertical;sourcePerimeterSpacing=0;targetPerimeterSpacing=0;startArrow=none;endArrow=none;rounded=0;curved=0;strokeColor=default;dashed=1;" edge="1" parent="b1h86Wo2CGf1PkXPqCOA-212" source="b1h86Wo2CGf1PkXPqCOA-214" target="b1h86Wo2CGf1PkXPqCOA-215">
          <mxGeometry relative="1" as="geometry" />
        </mxCell>
        <mxCell id="b1h86Wo2CGf1PkXPqCOA-214" value="5x Graphene Composite" style="whiteSpace=wrap;html=1;treeFolding=1;treeMoving=1;newEdgeStyle={&quot;edgeStyle&quot;:&quot;elbowEdgeStyle&quot;,&quot;startArrow&quot;:&quot;none&quot;,&quot;endArrow&quot;:&quot;none&quot;};" vertex="1" parent="b1h86Wo2CGf1PkXPqCOA-212">
          <mxGeometry x="140" y="60" width="120" height="40" as="geometry" />
        </mxCell>
        <mxCell id="b1h86Wo2CGf1PkXPqCOA-215" value="1x Graphene Helmet" style="whiteSpace=wrap;html=1;treeFolding=1;treeMoving=1;newEdgeStyle={&quot;edgeStyle&quot;:&quot;elbowEdgeStyle&quot;,&quot;startArrow&quot;:&quot;none&quot;,&quot;endArrow&quot;:&quot;none&quot;};" vertex="1" parent="b1h86Wo2CGf1PkXPqCOA-212">
          <mxGeometry x="140" y="170" width="120" height="40" as="geometry" />
        </mxCell>
        <mxCell id="b1h86Wo2CGf1PkXPqCOA-216" style="edgeStyle=orthogonalEdgeStyle;rounded=0;orthogonalLoop=1;jettySize=auto;html=1;" edge="1" parent="1" source="b1h86Wo2CGf1PkXPqCOA-217" target="b1h86Wo2CGf1PkXPqCOA-212">
          <mxGeometry relative="1" as="geometry" />
        </mxCell>
        <mxCell id="b1h86Wo2CGf1PkXPqCOA-217" value="&lt;span style=&quot;font-size: 20px;&quot;&gt;&lt;b&gt;Graphene&lt;/b&gt;&lt;/span&gt;&lt;div&gt;&lt;span style=&quot;font-size: 20px;&quot;&gt;&lt;b&gt;Composite&lt;/b&gt;&lt;/span&gt;&lt;/div&gt;" style="ellipse;whiteSpace=wrap;html=1;aspect=fixed;" vertex="1" parent="1">
          <mxGeometry x="2510" y="45" width="120" height="120" as="geometry" />
        </mxCell>
        <mxCell id="b1h86Wo2CGf1PkXPqCOA-218" value="&lt;span style=&quot;font-size: 20px;&quot;&gt;&lt;b&gt;Graphene&lt;/b&gt;&lt;/span&gt;&lt;div&gt;&lt;span style=&quot;font-size: 20px;&quot;&gt;&lt;b&gt;Helmet&lt;/b&gt;&lt;/span&gt;&lt;/div&gt;" style="ellipse;whiteSpace=wrap;html=1;aspect=fixed;" vertex="1" parent="1">
          <mxGeometry x="2515" y="545" width="110" height="110" as="geometry" />
        </mxCell>
        <mxCell id="b1h86Wo2CGf1PkXPqCOA-219" style="edgeStyle=orthogonalEdgeStyle;rounded=0;orthogonalLoop=1;jettySize=auto;html=1;entryX=0.5;entryY=0;entryDx=0;entryDy=0;" edge="1" parent="1" source="b1h86Wo2CGf1PkXPqCOA-220" target="b1h86Wo2CGf1PkXPqCOA-226">
          <mxGeometry relative="1" as="geometry" />
        </mxCell>
        <mxCell id="b1h86Wo2CGf1PkXPqCOA-220" value="Crafting Table" style="swimlane;startSize=30;horizontal=1;containerType=tree;" vertex="1" parent="1">
          <mxGeometry x="2830" y="225" width="400" height="240" as="geometry" />
        </mxCell>
        <mxCell id="b1h86Wo2CGf1PkXPqCOA-221" value="" style="edgeStyle=elbowEdgeStyle;elbow=vertical;sourcePerimeterSpacing=0;targetPerimeterSpacing=0;startArrow=none;endArrow=none;rounded=0;curved=0;strokeColor=default;dashed=1;" edge="1" parent="b1h86Wo2CGf1PkXPqCOA-220" source="b1h86Wo2CGf1PkXPqCOA-222" target="b1h86Wo2CGf1PkXPqCOA-223">
          <mxGeometry relative="1" as="geometry" />
        </mxCell>
        <mxCell id="b1h86Wo2CGf1PkXPqCOA-222" value="8x Graphene Composite" style="whiteSpace=wrap;html=1;treeFolding=1;treeMoving=1;newEdgeStyle={&quot;edgeStyle&quot;:&quot;elbowEdgeStyle&quot;,&quot;startArrow&quot;:&quot;none&quot;,&quot;endArrow&quot;:&quot;none&quot;};" vertex="1" parent="b1h86Wo2CGf1PkXPqCOA-220">
          <mxGeometry x="140" y="60" width="120" height="40" as="geometry" />
        </mxCell>
        <mxCell id="b1h86Wo2CGf1PkXPqCOA-223" value="1x Graphene Chestplate" style="whiteSpace=wrap;html=1;treeFolding=1;treeMoving=1;newEdgeStyle={&quot;edgeStyle&quot;:&quot;elbowEdgeStyle&quot;,&quot;startArrow&quot;:&quot;none&quot;,&quot;endArrow&quot;:&quot;none&quot;};" vertex="1" parent="b1h86Wo2CGf1PkXPqCOA-220">
          <mxGeometry x="140" y="170" width="120" height="40" as="geometry" />
        </mxCell>
        <mxCell id="b1h86Wo2CGf1PkXPqCOA-224" style="edgeStyle=orthogonalEdgeStyle;rounded=0;orthogonalLoop=1;jettySize=auto;html=1;" edge="1" parent="1" source="b1h86Wo2CGf1PkXPqCOA-225" target="b1h86Wo2CGf1PkXPqCOA-220">
          <mxGeometry relative="1" as="geometry" />
        </mxCell>
        <mxCell id="b1h86Wo2CGf1PkXPqCOA-225" value="&lt;span style=&quot;font-size: 20px;&quot;&gt;&lt;b&gt;Graphene&lt;/b&gt;&lt;/span&gt;&lt;div&gt;&lt;span style=&quot;font-size: 20px;&quot;&gt;&lt;b&gt;Composite&lt;/b&gt;&lt;/span&gt;&lt;/div&gt;" style="ellipse;whiteSpace=wrap;html=1;aspect=fixed;" vertex="1" parent="1">
          <mxGeometry x="2970" y="45" width="120" height="120" as="geometry" />
        </mxCell>
        <mxCell id="b1h86Wo2CGf1PkXPqCOA-226" value="&lt;span style=&quot;font-size: 20px;&quot;&gt;&lt;b&gt;Graphene&lt;/b&gt;&lt;/span&gt;&lt;div&gt;&lt;span style=&quot;font-size: 20px;&quot;&gt;&lt;b&gt;Chestplate&lt;/b&gt;&lt;/span&gt;&lt;/div&gt;" style="ellipse;whiteSpace=wrap;html=1;aspect=fixed;" vertex="1" parent="1">
          <mxGeometry x="2975" y="545" width="110" height="110" as="geometry" />
        </mxCell>
        <mxCell id="b1h86Wo2CGf1PkXPqCOA-227" style="edgeStyle=orthogonalEdgeStyle;rounded=0;orthogonalLoop=1;jettySize=auto;html=1;entryX=0.5;entryY=0;entryDx=0;entryDy=0;" edge="1" parent="1" source="b1h86Wo2CGf1PkXPqCOA-228" target="b1h86Wo2CGf1PkXPqCOA-234">
          <mxGeometry relative="1" as="geometry" />
        </mxCell>
        <mxCell id="b1h86Wo2CGf1PkXPqCOA-228" value="Crafting Table" style="swimlane;startSize=30;horizontal=1;containerType=tree;" vertex="1" parent="1">
          <mxGeometry x="3290" y="225" width="400" height="240" as="geometry" />
        </mxCell>
        <mxCell id="b1h86Wo2CGf1PkXPqCOA-229" value="" style="edgeStyle=elbowEdgeStyle;elbow=vertical;sourcePerimeterSpacing=0;targetPerimeterSpacing=0;startArrow=none;endArrow=none;rounded=0;curved=0;strokeColor=default;dashed=1;" edge="1" parent="b1h86Wo2CGf1PkXPqCOA-228" source="b1h86Wo2CGf1PkXPqCOA-230" target="b1h86Wo2CGf1PkXPqCOA-231">
          <mxGeometry relative="1" as="geometry" />
        </mxCell>
        <mxCell id="b1h86Wo2CGf1PkXPqCOA-230" value="7x Graphene Composite" style="whiteSpace=wrap;html=1;treeFolding=1;treeMoving=1;newEdgeStyle={&quot;edgeStyle&quot;:&quot;elbowEdgeStyle&quot;,&quot;startArrow&quot;:&quot;none&quot;,&quot;endArrow&quot;:&quot;none&quot;};" vertex="1" parent="b1h86Wo2CGf1PkXPqCOA-228">
          <mxGeometry x="140" y="60" width="120" height="40" as="geometry" />
        </mxCell>
        <mxCell id="b1h86Wo2CGf1PkXPqCOA-231" value="1x Graphene Leggings" style="whiteSpace=wrap;html=1;treeFolding=1;treeMoving=1;newEdgeStyle={&quot;edgeStyle&quot;:&quot;elbowEdgeStyle&quot;,&quot;startArrow&quot;:&quot;none&quot;,&quot;endArrow&quot;:&quot;none&quot;};" vertex="1" parent="b1h86Wo2CGf1PkXPqCOA-228">
          <mxGeometry x="140" y="170" width="120" height="40" as="geometry" />
        </mxCell>
        <mxCell id="b1h86Wo2CGf1PkXPqCOA-232" style="edgeStyle=orthogonalEdgeStyle;rounded=0;orthogonalLoop=1;jettySize=auto;html=1;" edge="1" parent="1" source="b1h86Wo2CGf1PkXPqCOA-233" target="b1h86Wo2CGf1PkXPqCOA-228">
          <mxGeometry relative="1" as="geometry" />
        </mxCell>
        <mxCell id="b1h86Wo2CGf1PkXPqCOA-233" value="&lt;span style=&quot;font-size: 20px;&quot;&gt;&lt;b&gt;Graphene&lt;/b&gt;&lt;/span&gt;&lt;div&gt;&lt;span style=&quot;font-size: 20px;&quot;&gt;&lt;b&gt;Composite&lt;/b&gt;&lt;/span&gt;&lt;/div&gt;" style="ellipse;whiteSpace=wrap;html=1;aspect=fixed;" vertex="1" parent="1">
          <mxGeometry x="3430" y="45" width="120" height="120" as="geometry" />
        </mxCell>
        <mxCell id="b1h86Wo2CGf1PkXPqCOA-234" value="&lt;span style=&quot;font-size: 20px;&quot;&gt;&lt;b&gt;Graphene&lt;/b&gt;&lt;/span&gt;&lt;div&gt;&lt;span style=&quot;font-size: 20px;&quot;&gt;&lt;b&gt;Leggings&lt;/b&gt;&lt;/span&gt;&lt;/div&gt;" style="ellipse;whiteSpace=wrap;html=1;aspect=fixed;" vertex="1" parent="1">
          <mxGeometry x="3435" y="545" width="110" height="110" as="geometry" />
        </mxCell>
        <mxCell id="b1h86Wo2CGf1PkXPqCOA-235" style="edgeStyle=orthogonalEdgeStyle;rounded=0;orthogonalLoop=1;jettySize=auto;html=1;entryX=0.5;entryY=0;entryDx=0;entryDy=0;" edge="1" parent="1" source="b1h86Wo2CGf1PkXPqCOA-236" target="b1h86Wo2CGf1PkXPqCOA-242">
          <mxGeometry relative="1" as="geometry" />
        </mxCell>
        <mxCell id="b1h86Wo2CGf1PkXPqCOA-236" value="Crafting Table" style="swimlane;startSize=30;horizontal=1;containerType=tree;" vertex="1" parent="1">
          <mxGeometry x="3770" y="225" width="400" height="240" as="geometry" />
        </mxCell>
        <mxCell id="b1h86Wo2CGf1PkXPqCOA-237" value="" style="edgeStyle=elbowEdgeStyle;elbow=vertical;sourcePerimeterSpacing=0;targetPerimeterSpacing=0;startArrow=none;endArrow=none;rounded=0;curved=0;strokeColor=default;dashed=1;" edge="1" parent="b1h86Wo2CGf1PkXPqCOA-236" source="b1h86Wo2CGf1PkXPqCOA-238" target="b1h86Wo2CGf1PkXPqCOA-239">
          <mxGeometry relative="1" as="geometry" />
        </mxCell>
        <mxCell id="b1h86Wo2CGf1PkXPqCOA-238" value="2x Graphene Composite" style="whiteSpace=wrap;html=1;treeFolding=1;treeMoving=1;newEdgeStyle={&quot;edgeStyle&quot;:&quot;elbowEdgeStyle&quot;,&quot;startArrow&quot;:&quot;none&quot;,&quot;endArrow&quot;:&quot;none&quot;};" vertex="1" parent="b1h86Wo2CGf1PkXPqCOA-236">
          <mxGeometry x="20" y="55" width="120" height="40" as="geometry" />
        </mxCell>
        <mxCell id="b1h86Wo2CGf1PkXPqCOA-239" value="1x Graphene Sword" style="whiteSpace=wrap;html=1;treeFolding=1;treeMoving=1;newEdgeStyle={&quot;edgeStyle&quot;:&quot;elbowEdgeStyle&quot;,&quot;startArrow&quot;:&quot;none&quot;,&quot;endArrow&quot;:&quot;none&quot;};" vertex="1" parent="b1h86Wo2CGf1PkXPqCOA-236">
          <mxGeometry x="140" y="170" width="120" height="40" as="geometry" />
        </mxCell>
        <mxCell id="b1h86Wo2CGf1PkXPqCOA-244" style="edgeStyle=elbowEdgeStyle;rounded=0;orthogonalLoop=1;jettySize=auto;html=1;startArrow=none;endArrow=none;entryX=0.75;entryY=0;entryDx=0;entryDy=0;dashed=1;" edge="1" parent="b1h86Wo2CGf1PkXPqCOA-236">
          <mxGeometry relative="1" as="geometry">
            <mxPoint x="240" y="135" as="sourcePoint" />
            <mxPoint x="230" y="170" as="targetPoint" />
          </mxGeometry>
        </mxCell>
        <mxCell id="b1h86Wo2CGf1PkXPqCOA-243" value="1x Stick" style="whiteSpace=wrap;html=1;treeFolding=1;treeMoving=1;newEdgeStyle={&quot;edgeStyle&quot;:&quot;elbowEdgeStyle&quot;,&quot;startArrow&quot;:&quot;none&quot;,&quot;endArrow&quot;:&quot;none&quot;};" vertex="1" parent="b1h86Wo2CGf1PkXPqCOA-236">
          <mxGeometry x="250" y="55" width="120" height="40" as="geometry" />
        </mxCell>
        <mxCell id="b1h86Wo2CGf1PkXPqCOA-245" value="" style="endArrow=none;dashed=1;html=1;rounded=0;exitX=0.5;exitY=1;exitDx=0;exitDy=0;" edge="1" parent="b1h86Wo2CGf1PkXPqCOA-236" source="b1h86Wo2CGf1PkXPqCOA-243">
          <mxGeometry width="50" height="50" relative="1" as="geometry">
            <mxPoint x="260" y="185" as="sourcePoint" />
            <mxPoint x="310" y="135" as="targetPoint" />
          </mxGeometry>
        </mxCell>
        <mxCell id="b1h86Wo2CGf1PkXPqCOA-240" style="edgeStyle=orthogonalEdgeStyle;rounded=0;orthogonalLoop=1;jettySize=auto;html=1;" edge="1" parent="1" source="b1h86Wo2CGf1PkXPqCOA-241" target="b1h86Wo2CGf1PkXPqCOA-236">
          <mxGeometry relative="1" as="geometry" />
        </mxCell>
        <mxCell id="b1h86Wo2CGf1PkXPqCOA-241" value="&lt;span style=&quot;font-size: 20px;&quot;&gt;&lt;b&gt;Graphene&lt;/b&gt;&lt;/span&gt;&lt;div&gt;&lt;span style=&quot;font-size: 20px;&quot;&gt;&lt;b&gt;Composite&lt;/b&gt;&lt;/span&gt;&lt;/div&gt;" style="ellipse;whiteSpace=wrap;html=1;aspect=fixed;" vertex="1" parent="1">
          <mxGeometry x="3910" y="45" width="120" height="120" as="geometry" />
        </mxCell>
        <mxCell id="b1h86Wo2CGf1PkXPqCOA-242" value="&lt;span style=&quot;font-size: 20px;&quot;&gt;&lt;b&gt;Graphene&lt;/b&gt;&lt;/span&gt;&lt;div&gt;&lt;span style=&quot;font-size: 20px;&quot;&gt;&lt;b&gt;Sword&lt;/b&gt;&lt;/span&gt;&lt;/div&gt;" style="ellipse;whiteSpace=wrap;html=1;aspect=fixed;" vertex="1" parent="1">
          <mxGeometry x="3915" y="545" width="110" height="110" as="geometry" />
        </mxCell>
        <mxCell id="b1h86Wo2CGf1PkXPqCOA-246" value="" style="endArrow=none;dashed=1;html=1;rounded=0;" edge="1" parent="1">
          <mxGeometry width="50" height="50" relative="1" as="geometry">
            <mxPoint x="4010" y="360" as="sourcePoint" />
            <mxPoint x="4080" y="360" as="targetPoint" />
          </mxGeometry>
        </mxCell>
        <mxCell id="b1h86Wo2CGf1PkXPqCOA-259" style="edgeStyle=orthogonalEdgeStyle;rounded=0;orthogonalLoop=1;jettySize=auto;html=1;entryX=0.25;entryY=0;entryDx=0;entryDy=0;" edge="1" parent="1" source="b1h86Wo2CGf1PkXPqCOA-247" target="b1h86Wo2CGf1PkXPqCOA-248">
          <mxGeometry relative="1" as="geometry" />
        </mxCell>
        <mxCell id="b1h86Wo2CGf1PkXPqCOA-247" value="&lt;span style=&quot;font-size: 20px;&quot;&gt;&lt;b&gt;Iron Ingot&lt;/b&gt;&lt;/span&gt;" style="ellipse;whiteSpace=wrap;html=1;aspect=fixed;" vertex="1" parent="1">
          <mxGeometry x="1930" y="770" width="110" height="110" as="geometry" />
        </mxCell>
        <mxCell id="b1h86Wo2CGf1PkXPqCOA-248" value="Crafting Table" style="swimlane;startSize=30;horizontal=1;containerType=tree;" vertex="1" parent="1">
          <mxGeometry x="1920" y="960" width="400" height="240" as="geometry" />
        </mxCell>
        <mxCell id="b1h86Wo2CGf1PkXPqCOA-249" value="" style="edgeStyle=elbowEdgeStyle;elbow=vertical;sourcePerimeterSpacing=0;targetPerimeterSpacing=0;startArrow=none;endArrow=none;rounded=0;curved=0;strokeColor=default;dashed=1;entryX=0.25;entryY=0;entryDx=0;entryDy=0;" edge="1" parent="b1h86Wo2CGf1PkXPqCOA-248" source="b1h86Wo2CGf1PkXPqCOA-250" target="b1h86Wo2CGf1PkXPqCOA-252">
          <mxGeometry relative="1" as="geometry">
            <Array as="points">
              <mxPoint x="70" y="130" />
            </Array>
          </mxGeometry>
        </mxCell>
        <mxCell id="b1h86Wo2CGf1PkXPqCOA-250" value="4x Iron Ingot" style="whiteSpace=wrap;html=1;treeFolding=1;treeMoving=1;newEdgeStyle={&quot;edgeStyle&quot;:&quot;elbowEdgeStyle&quot;,&quot;startArrow&quot;:&quot;none&quot;,&quot;endArrow&quot;:&quot;none&quot;};" vertex="1" parent="b1h86Wo2CGf1PkXPqCOA-248">
          <mxGeometry x="10" y="60" width="120" height="40" as="geometry" />
        </mxCell>
        <mxCell id="b1h86Wo2CGf1PkXPqCOA-251" style="edgeStyle=elbowEdgeStyle;rounded=0;orthogonalLoop=1;jettySize=auto;html=1;startArrow=none;endArrow=none;entryX=0.5;entryY=1;entryDx=0;entryDy=0;dashed=1;" edge="1" parent="b1h86Wo2CGf1PkXPqCOA-248" target="b1h86Wo2CGf1PkXPqCOA-255">
          <mxGeometry relative="1" as="geometry">
            <mxPoint x="230" y="130" as="sourcePoint" />
            <Array as="points">
              <mxPoint x="330" y="140" />
            </Array>
          </mxGeometry>
        </mxCell>
        <mxCell id="b1h86Wo2CGf1PkXPqCOA-252" value="1x Mechanism" style="whiteSpace=wrap;html=1;treeFolding=1;treeMoving=1;newEdgeStyle={&quot;edgeStyle&quot;:&quot;elbowEdgeStyle&quot;,&quot;startArrow&quot;:&quot;none&quot;,&quot;endArrow&quot;:&quot;none&quot;};" vertex="1" parent="b1h86Wo2CGf1PkXPqCOA-248">
          <mxGeometry x="140" y="170" width="120" height="40" as="geometry" />
        </mxCell>
        <mxCell id="b1h86Wo2CGf1PkXPqCOA-253" style="edgeStyle=elbowEdgeStyle;rounded=1;orthogonalLoop=1;jettySize=auto;html=1;startArrow=none;endArrow=none;entryX=0.5;entryY=0;entryDx=0;entryDy=0;curved=0;dashed=1;" edge="1" parent="b1h86Wo2CGf1PkXPqCOA-248" source="b1h86Wo2CGf1PkXPqCOA-254" target="b1h86Wo2CGf1PkXPqCOA-252">
          <mxGeometry relative="1" as="geometry" />
        </mxCell>
        <mxCell id="b1h86Wo2CGf1PkXPqCOA-254" value="4x Coper Ingot" style="whiteSpace=wrap;html=1;treeFolding=1;treeMoving=1;newEdgeStyle={&quot;edgeStyle&quot;:&quot;elbowEdgeStyle&quot;,&quot;startArrow&quot;:&quot;none&quot;,&quot;endArrow&quot;:&quot;none&quot;};" vertex="1" parent="b1h86Wo2CGf1PkXPqCOA-248">
          <mxGeometry x="140" y="60" width="120" height="40" as="geometry" />
        </mxCell>
        <mxCell id="b1h86Wo2CGf1PkXPqCOA-255" value="1x Redstone" style="whiteSpace=wrap;html=1;treeFolding=1;treeMoving=1;newEdgeStyle={&quot;edgeStyle&quot;:&quot;elbowEdgeStyle&quot;,&quot;startArrow&quot;:&quot;none&quot;,&quot;endArrow&quot;:&quot;none&quot;};" vertex="1" parent="b1h86Wo2CGf1PkXPqCOA-248">
          <mxGeometry x="270" y="60" width="120" height="40" as="geometry" />
        </mxCell>
        <mxCell id="b1h86Wo2CGf1PkXPqCOA-256" value="" style="endArrow=none;dashed=1;html=1;rounded=0;exitX=0.75;exitY=0;exitDx=0;exitDy=0;" edge="1" parent="b1h86Wo2CGf1PkXPqCOA-248" source="b1h86Wo2CGf1PkXPqCOA-252">
          <mxGeometry width="50" height="50" relative="1" as="geometry">
            <mxPoint x="190" y="190" as="sourcePoint" />
            <mxPoint x="230" y="130" as="targetPoint" />
          </mxGeometry>
        </mxCell>
        <mxCell id="b1h86Wo2CGf1PkXPqCOA-260" style="edgeStyle=orthogonalEdgeStyle;rounded=0;orthogonalLoop=1;jettySize=auto;html=1;" edge="1" parent="1" source="b1h86Wo2CGf1PkXPqCOA-257" target="b1h86Wo2CGf1PkXPqCOA-248">
          <mxGeometry relative="1" as="geometry" />
        </mxCell>
        <mxCell id="b1h86Wo2CGf1PkXPqCOA-257" value="&lt;span style=&quot;font-size: 20px;&quot;&gt;&lt;b&gt;Coper Ingot&lt;/b&gt;&lt;/span&gt;" style="ellipse;whiteSpace=wrap;html=1;aspect=fixed;" vertex="1" parent="1">
          <mxGeometry x="2065" y="770" width="110" height="110" as="geometry" />
        </mxCell>
        <mxCell id="b1h86Wo2CGf1PkXPqCOA-258" value="&lt;span style=&quot;font-size: 20px;&quot;&gt;&lt;b&gt;Redstone Dust&lt;/b&gt;&lt;/span&gt;" style="ellipse;whiteSpace=wrap;html=1;aspect=fixed;" vertex="1" parent="1">
          <mxGeometry x="2200" y="770" width="110" height="110" as="geometry" />
        </mxCell>
        <mxCell id="b1h86Wo2CGf1PkXPqCOA-261" style="edgeStyle=orthogonalEdgeStyle;rounded=0;orthogonalLoop=1;jettySize=auto;html=1;entryX=0.75;entryY=0;entryDx=0;entryDy=0;" edge="1" parent="1" source="b1h86Wo2CGf1PkXPqCOA-258" target="b1h86Wo2CGf1PkXPqCOA-248">
          <mxGeometry relative="1" as="geometry">
            <mxPoint x="2220" y="950" as="targetPoint" />
          </mxGeometry>
        </mxCell>
        <mxCell id="b1h86Wo2CGf1PkXPqCOA-262" value="&lt;span style=&quot;font-size: 20px;&quot;&gt;&lt;b&gt;Mechanism&lt;/b&gt;&lt;/span&gt;" style="ellipse;whiteSpace=wrap;html=1;aspect=fixed;" vertex="1" parent="1">
          <mxGeometry x="2065" y="1280" width="110" height="110" as="geometry" />
        </mxCell>
        <mxCell id="b1h86Wo2CGf1PkXPqCOA-263" style="edgeStyle=orthogonalEdgeStyle;rounded=0;orthogonalLoop=1;jettySize=auto;html=1;entryX=0.507;entryY=0.029;entryDx=0;entryDy=0;entryPerimeter=0;" edge="1" parent="1" source="b1h86Wo2CGf1PkXPqCOA-248" target="b1h86Wo2CGf1PkXPqCOA-262">
          <mxGeometry relative="1" as="geometry" />
        </mxCell>
        <mxCell id="b1h86Wo2CGf1PkXPqCOA-274" style="edgeStyle=orthogonalEdgeStyle;rounded=0;orthogonalLoop=1;jettySize=auto;html=1;" edge="1" parent="1" source="b1h86Wo2CGf1PkXPqCOA-264" target="b1h86Wo2CGf1PkXPqCOA-273">
          <mxGeometry relative="1" as="geometry" />
        </mxCell>
        <mxCell id="b1h86Wo2CGf1PkXPqCOA-264" value="Crafting Table" style="swimlane;startSize=30;horizontal=1;containerType=tree;" vertex="1" parent="1">
          <mxGeometry x="2413" y="960" width="400" height="240" as="geometry" />
        </mxCell>
        <mxCell id="b1h86Wo2CGf1PkXPqCOA-265" value="" style="edgeStyle=elbowEdgeStyle;elbow=vertical;sourcePerimeterSpacing=0;targetPerimeterSpacing=0;startArrow=none;endArrow=none;rounded=0;curved=0;strokeColor=default;dashed=1;entryX=0.25;entryY=0;entryDx=0;entryDy=0;" edge="1" parent="b1h86Wo2CGf1PkXPqCOA-264" source="b1h86Wo2CGf1PkXPqCOA-266" target="b1h86Wo2CGf1PkXPqCOA-268">
          <mxGeometry relative="1" as="geometry">
            <Array as="points">
              <mxPoint x="70" y="130" />
            </Array>
          </mxGeometry>
        </mxCell>
        <mxCell id="b1h86Wo2CGf1PkXPqCOA-266" value="3x Mechanism" style="whiteSpace=wrap;html=1;treeFolding=1;treeMoving=1;newEdgeStyle={&quot;edgeStyle&quot;:&quot;elbowEdgeStyle&quot;,&quot;startArrow&quot;:&quot;none&quot;,&quot;endArrow&quot;:&quot;none&quot;};" vertex="1" parent="b1h86Wo2CGf1PkXPqCOA-264">
          <mxGeometry x="10" y="60" width="120" height="40" as="geometry" />
        </mxCell>
        <mxCell id="b1h86Wo2CGf1PkXPqCOA-267" style="edgeStyle=elbowEdgeStyle;rounded=0;orthogonalLoop=1;jettySize=auto;html=1;startArrow=none;endArrow=none;entryX=0.5;entryY=1;entryDx=0;entryDy=0;dashed=1;" edge="1" parent="b1h86Wo2CGf1PkXPqCOA-264" target="b1h86Wo2CGf1PkXPqCOA-271">
          <mxGeometry relative="1" as="geometry">
            <mxPoint x="230" y="130" as="sourcePoint" />
            <Array as="points">
              <mxPoint x="330" y="140" />
            </Array>
          </mxGeometry>
        </mxCell>
        <mxCell id="b1h86Wo2CGf1PkXPqCOA-268" value="1x Crusher" style="whiteSpace=wrap;html=1;treeFolding=1;treeMoving=1;newEdgeStyle={&quot;edgeStyle&quot;:&quot;elbowEdgeStyle&quot;,&quot;startArrow&quot;:&quot;none&quot;,&quot;endArrow&quot;:&quot;none&quot;};" vertex="1" parent="b1h86Wo2CGf1PkXPqCOA-264">
          <mxGeometry x="140" y="170" width="120" height="40" as="geometry" />
        </mxCell>
        <mxCell id="b1h86Wo2CGf1PkXPqCOA-269" style="edgeStyle=elbowEdgeStyle;rounded=1;orthogonalLoop=1;jettySize=auto;html=1;startArrow=none;endArrow=none;entryX=0.5;entryY=0;entryDx=0;entryDy=0;curved=0;dashed=1;" edge="1" parent="b1h86Wo2CGf1PkXPqCOA-264" source="b1h86Wo2CGf1PkXPqCOA-270" target="b1h86Wo2CGf1PkXPqCOA-268">
          <mxGeometry relative="1" as="geometry" />
        </mxCell>
        <mxCell id="b1h86Wo2CGf1PkXPqCOA-270" value="3x Iron Ingot" style="whiteSpace=wrap;html=1;treeFolding=1;treeMoving=1;newEdgeStyle={&quot;edgeStyle&quot;:&quot;elbowEdgeStyle&quot;,&quot;startArrow&quot;:&quot;none&quot;,&quot;endArrow&quot;:&quot;none&quot;};" vertex="1" parent="b1h86Wo2CGf1PkXPqCOA-264">
          <mxGeometry x="140" y="60" width="120" height="40" as="geometry" />
        </mxCell>
        <mxCell id="b1h86Wo2CGf1PkXPqCOA-271" value="3x Flint" style="whiteSpace=wrap;html=1;treeFolding=1;treeMoving=1;newEdgeStyle={&quot;edgeStyle&quot;:&quot;elbowEdgeStyle&quot;,&quot;startArrow&quot;:&quot;none&quot;,&quot;endArrow&quot;:&quot;none&quot;};" vertex="1" parent="b1h86Wo2CGf1PkXPqCOA-264">
          <mxGeometry x="270" y="60" width="120" height="40" as="geometry" />
        </mxCell>
        <mxCell id="b1h86Wo2CGf1PkXPqCOA-272" value="" style="endArrow=none;dashed=1;html=1;rounded=0;exitX=0.75;exitY=0;exitDx=0;exitDy=0;" edge="1" parent="b1h86Wo2CGf1PkXPqCOA-264" source="b1h86Wo2CGf1PkXPqCOA-268">
          <mxGeometry width="50" height="50" relative="1" as="geometry">
            <mxPoint x="190" y="190" as="sourcePoint" />
            <mxPoint x="230" y="130" as="targetPoint" />
          </mxGeometry>
        </mxCell>
        <mxCell id="b1h86Wo2CGf1PkXPqCOA-273" value="&lt;span style=&quot;font-size: 20px;&quot;&gt;&lt;b&gt;Crusher&lt;/b&gt;&lt;/span&gt;" style="whiteSpace=wrap;html=1;aspect=fixed;" vertex="1" parent="1">
          <mxGeometry x="2548" y="1280" width="130" height="130" as="geometry" />
        </mxCell>
        <mxCell id="b1h86Wo2CGf1PkXPqCOA-275" value="&lt;span style=&quot;font-size: 20px;&quot;&gt;&lt;b&gt;Mechanism&lt;/b&gt;&lt;/span&gt;" style="ellipse;whiteSpace=wrap;html=1;aspect=fixed;" vertex="1" parent="1">
          <mxGeometry x="2422.5" y="770" width="110" height="110" as="geometry" />
        </mxCell>
        <mxCell id="b1h86Wo2CGf1PkXPqCOA-279" style="edgeStyle=orthogonalEdgeStyle;rounded=0;orthogonalLoop=1;jettySize=auto;html=1;" edge="1" parent="1" source="b1h86Wo2CGf1PkXPqCOA-276" target="b1h86Wo2CGf1PkXPqCOA-264">
          <mxGeometry relative="1" as="geometry" />
        </mxCell>
        <mxCell id="b1h86Wo2CGf1PkXPqCOA-276" value="&lt;span style=&quot;font-size: 20px;&quot;&gt;&lt;b&gt;Iron Ingot&lt;/b&gt;&lt;/span&gt;" style="ellipse;whiteSpace=wrap;html=1;aspect=fixed;" vertex="1" parent="1">
          <mxGeometry x="2557.5" y="770" width="110" height="110" as="geometry" />
        </mxCell>
        <mxCell id="b1h86Wo2CGf1PkXPqCOA-280" style="edgeStyle=orthogonalEdgeStyle;rounded=0;orthogonalLoop=1;jettySize=auto;html=1;entryX=0.75;entryY=0;entryDx=0;entryDy=0;" edge="1" parent="1" source="b1h86Wo2CGf1PkXPqCOA-277" target="b1h86Wo2CGf1PkXPqCOA-264">
          <mxGeometry relative="1" as="geometry" />
        </mxCell>
        <mxCell id="b1h86Wo2CGf1PkXPqCOA-277" value="&lt;span style=&quot;font-size: 20px;&quot;&gt;&lt;b&gt;Flint&lt;/b&gt;&lt;/span&gt;" style="ellipse;whiteSpace=wrap;html=1;aspect=fixed;" vertex="1" parent="1">
          <mxGeometry x="2687.5" y="770" width="110" height="110" as="geometry" />
        </mxCell>
        <mxCell id="b1h86Wo2CGf1PkXPqCOA-278" style="edgeStyle=orthogonalEdgeStyle;rounded=0;orthogonalLoop=1;jettySize=auto;html=1;entryX=0.241;entryY=0.007;entryDx=0;entryDy=0;entryPerimeter=0;" edge="1" parent="1" source="b1h86Wo2CGf1PkXPqCOA-275" target="b1h86Wo2CGf1PkXPqCOA-264">
          <mxGeometry relative="1" as="geometry" />
        </mxCell>
        <mxCell id="b1h86Wo2CGf1PkXPqCOA-281" style="edgeStyle=orthogonalEdgeStyle;rounded=0;orthogonalLoop=1;jettySize=auto;html=1;" edge="1" parent="1" source="b1h86Wo2CGf1PkXPqCOA-282" target="b1h86Wo2CGf1PkXPqCOA-291">
          <mxGeometry relative="1" as="geometry" />
        </mxCell>
        <mxCell id="b1h86Wo2CGf1PkXPqCOA-282" value="Crafting Table" style="swimlane;startSize=30;horizontal=1;containerType=tree;" vertex="1" parent="1">
          <mxGeometry x="2850" y="960" width="400" height="240" as="geometry" />
        </mxCell>
        <mxCell id="b1h86Wo2CGf1PkXPqCOA-283" value="" style="edgeStyle=elbowEdgeStyle;elbow=vertical;sourcePerimeterSpacing=0;targetPerimeterSpacing=0;startArrow=none;endArrow=none;rounded=0;curved=0;strokeColor=default;dashed=1;entryX=0.25;entryY=0;entryDx=0;entryDy=0;" edge="1" parent="b1h86Wo2CGf1PkXPqCOA-282" source="b1h86Wo2CGf1PkXPqCOA-284" target="b1h86Wo2CGf1PkXPqCOA-286">
          <mxGeometry relative="1" as="geometry">
            <Array as="points">
              <mxPoint x="70" y="130" />
            </Array>
          </mxGeometry>
        </mxCell>
        <mxCell id="b1h86Wo2CGf1PkXPqCOA-284" value="3x Mechanism" style="whiteSpace=wrap;html=1;treeFolding=1;treeMoving=1;newEdgeStyle={&quot;edgeStyle&quot;:&quot;elbowEdgeStyle&quot;,&quot;startArrow&quot;:&quot;none&quot;,&quot;endArrow&quot;:&quot;none&quot;};" vertex="1" parent="b1h86Wo2CGf1PkXPqCOA-282">
          <mxGeometry x="10" y="60" width="120" height="40" as="geometry" />
        </mxCell>
        <mxCell id="b1h86Wo2CGf1PkXPqCOA-285" style="edgeStyle=elbowEdgeStyle;rounded=0;orthogonalLoop=1;jettySize=auto;html=1;startArrow=none;endArrow=none;entryX=0.5;entryY=1;entryDx=0;entryDy=0;dashed=1;" edge="1" parent="b1h86Wo2CGf1PkXPqCOA-282" target="b1h86Wo2CGf1PkXPqCOA-289">
          <mxGeometry relative="1" as="geometry">
            <mxPoint x="230" y="130" as="sourcePoint" />
            <Array as="points">
              <mxPoint x="330" y="140" />
            </Array>
          </mxGeometry>
        </mxCell>
        <mxCell id="b1h86Wo2CGf1PkXPqCOA-286" value="1x Chemical Reactor" style="whiteSpace=wrap;html=1;treeFolding=1;treeMoving=1;newEdgeStyle={&quot;edgeStyle&quot;:&quot;elbowEdgeStyle&quot;,&quot;startArrow&quot;:&quot;none&quot;,&quot;endArrow&quot;:&quot;none&quot;};" vertex="1" parent="b1h86Wo2CGf1PkXPqCOA-282">
          <mxGeometry x="140" y="170" width="120" height="40" as="geometry" />
        </mxCell>
        <mxCell id="b1h86Wo2CGf1PkXPqCOA-287" style="edgeStyle=elbowEdgeStyle;rounded=1;orthogonalLoop=1;jettySize=auto;html=1;startArrow=none;endArrow=none;entryX=0.5;entryY=0;entryDx=0;entryDy=0;curved=0;dashed=1;" edge="1" parent="b1h86Wo2CGf1PkXPqCOA-282" source="b1h86Wo2CGf1PkXPqCOA-288" target="b1h86Wo2CGf1PkXPqCOA-286">
          <mxGeometry relative="1" as="geometry" />
        </mxCell>
        <mxCell id="b1h86Wo2CGf1PkXPqCOA-288" value="3x Iron Ingot" style="whiteSpace=wrap;html=1;treeFolding=1;treeMoving=1;newEdgeStyle={&quot;edgeStyle&quot;:&quot;elbowEdgeStyle&quot;,&quot;startArrow&quot;:&quot;none&quot;,&quot;endArrow&quot;:&quot;none&quot;};" vertex="1" parent="b1h86Wo2CGf1PkXPqCOA-282">
          <mxGeometry x="140" y="60" width="120" height="40" as="geometry" />
        </mxCell>
        <mxCell id="b1h86Wo2CGf1PkXPqCOA-289" value="3x Water Bottle" style="whiteSpace=wrap;html=1;treeFolding=1;treeMoving=1;newEdgeStyle={&quot;edgeStyle&quot;:&quot;elbowEdgeStyle&quot;,&quot;startArrow&quot;:&quot;none&quot;,&quot;endArrow&quot;:&quot;none&quot;};" vertex="1" parent="b1h86Wo2CGf1PkXPqCOA-282">
          <mxGeometry x="270" y="60" width="120" height="40" as="geometry" />
        </mxCell>
        <mxCell id="b1h86Wo2CGf1PkXPqCOA-290" value="" style="endArrow=none;dashed=1;html=1;rounded=0;exitX=0.75;exitY=0;exitDx=0;exitDy=0;" edge="1" parent="b1h86Wo2CGf1PkXPqCOA-282" source="b1h86Wo2CGf1PkXPqCOA-286">
          <mxGeometry width="50" height="50" relative="1" as="geometry">
            <mxPoint x="190" y="190" as="sourcePoint" />
            <mxPoint x="230" y="130" as="targetPoint" />
          </mxGeometry>
        </mxCell>
        <mxCell id="b1h86Wo2CGf1PkXPqCOA-291" value="&lt;span style=&quot;font-size: 20px;&quot;&gt;&lt;b&gt;Chemical&lt;/b&gt;&lt;/span&gt;&lt;div&gt;&lt;span style=&quot;font-size: 20px;&quot;&gt;&lt;b&gt;Reactor&lt;/b&gt;&lt;/span&gt;&lt;/div&gt;" style="whiteSpace=wrap;html=1;aspect=fixed;" vertex="1" parent="1">
          <mxGeometry x="2985" y="1280" width="130" height="130" as="geometry" />
        </mxCell>
        <mxCell id="b1h86Wo2CGf1PkXPqCOA-292" value="&lt;span style=&quot;font-size: 20px;&quot;&gt;&lt;b&gt;Mechanism&lt;/b&gt;&lt;/span&gt;" style="ellipse;whiteSpace=wrap;html=1;aspect=fixed;" vertex="1" parent="1">
          <mxGeometry x="2859.5" y="770" width="110" height="110" as="geometry" />
        </mxCell>
        <mxCell id="b1h86Wo2CGf1PkXPqCOA-293" style="edgeStyle=orthogonalEdgeStyle;rounded=0;orthogonalLoop=1;jettySize=auto;html=1;" edge="1" parent="1" source="b1h86Wo2CGf1PkXPqCOA-294" target="b1h86Wo2CGf1PkXPqCOA-282">
          <mxGeometry relative="1" as="geometry" />
        </mxCell>
        <mxCell id="b1h86Wo2CGf1PkXPqCOA-294" value="&lt;span style=&quot;font-size: 20px;&quot;&gt;&lt;b&gt;Iron Ingot&lt;/b&gt;&lt;/span&gt;" style="ellipse;whiteSpace=wrap;html=1;aspect=fixed;" vertex="1" parent="1">
          <mxGeometry x="2994.5" y="770" width="110" height="110" as="geometry" />
        </mxCell>
        <mxCell id="b1h86Wo2CGf1PkXPqCOA-295" style="edgeStyle=orthogonalEdgeStyle;rounded=0;orthogonalLoop=1;jettySize=auto;html=1;entryX=0.75;entryY=0;entryDx=0;entryDy=0;" edge="1" parent="1" source="b1h86Wo2CGf1PkXPqCOA-296" target="b1h86Wo2CGf1PkXPqCOA-282">
          <mxGeometry relative="1" as="geometry" />
        </mxCell>
        <mxCell id="b1h86Wo2CGf1PkXPqCOA-296" value="&lt;span style=&quot;font-size: 20px;&quot;&gt;&lt;b&gt;Water Bottle&lt;/b&gt;&lt;/span&gt;" style="ellipse;whiteSpace=wrap;html=1;aspect=fixed;" vertex="1" parent="1">
          <mxGeometry x="3124.5" y="770" width="110" height="110" as="geometry" />
        </mxCell>
        <mxCell id="b1h86Wo2CGf1PkXPqCOA-297" style="edgeStyle=orthogonalEdgeStyle;rounded=0;orthogonalLoop=1;jettySize=auto;html=1;entryX=0.241;entryY=0.007;entryDx=0;entryDy=0;entryPerimeter=0;" edge="1" parent="1" source="b1h86Wo2CGf1PkXPqCOA-292" target="b1h86Wo2CGf1PkXPqCOA-282">
          <mxGeometry relative="1" as="geometry" />
        </mxCell>
        <mxCell id="b1h86Wo2CGf1PkXPqCOA-298" style="edgeStyle=orthogonalEdgeStyle;rounded=0;orthogonalLoop=1;jettySize=auto;html=1;" edge="1" parent="1" source="b1h86Wo2CGf1PkXPqCOA-299" target="b1h86Wo2CGf1PkXPqCOA-308">
          <mxGeometry relative="1" as="geometry" />
        </mxCell>
        <mxCell id="b1h86Wo2CGf1PkXPqCOA-299" value="Crafting Table" style="swimlane;startSize=30;horizontal=1;containerType=tree;" vertex="1" parent="1">
          <mxGeometry x="3280" y="960" width="400" height="240" as="geometry" />
        </mxCell>
        <mxCell id="b1h86Wo2CGf1PkXPqCOA-300" value="" style="edgeStyle=elbowEdgeStyle;elbow=vertical;sourcePerimeterSpacing=0;targetPerimeterSpacing=0;startArrow=none;endArrow=none;rounded=0;curved=0;strokeColor=default;dashed=1;entryX=0.25;entryY=0;entryDx=0;entryDy=0;" edge="1" parent="b1h86Wo2CGf1PkXPqCOA-299" source="b1h86Wo2CGf1PkXPqCOA-301" target="b1h86Wo2CGf1PkXPqCOA-303">
          <mxGeometry relative="1" as="geometry">
            <Array as="points">
              <mxPoint x="70" y="130" />
            </Array>
          </mxGeometry>
        </mxCell>
        <mxCell id="b1h86Wo2CGf1PkXPqCOA-301" value="3x Mechanism" style="whiteSpace=wrap;html=1;treeFolding=1;treeMoving=1;newEdgeStyle={&quot;edgeStyle&quot;:&quot;elbowEdgeStyle&quot;,&quot;startArrow&quot;:&quot;none&quot;,&quot;endArrow&quot;:&quot;none&quot;};" vertex="1" parent="b1h86Wo2CGf1PkXPqCOA-299">
          <mxGeometry x="10" y="60" width="120" height="40" as="geometry" />
        </mxCell>
        <mxCell id="b1h86Wo2CGf1PkXPqCOA-302" style="edgeStyle=elbowEdgeStyle;rounded=0;orthogonalLoop=1;jettySize=auto;html=1;startArrow=none;endArrow=none;entryX=0.5;entryY=1;entryDx=0;entryDy=0;dashed=1;" edge="1" parent="b1h86Wo2CGf1PkXPqCOA-299" target="b1h86Wo2CGf1PkXPqCOA-306">
          <mxGeometry relative="1" as="geometry">
            <mxPoint x="230" y="130" as="sourcePoint" />
            <Array as="points">
              <mxPoint x="330" y="140" />
            </Array>
          </mxGeometry>
        </mxCell>
        <mxCell id="b1h86Wo2CGf1PkXPqCOA-303" value="1x Filtration Machine" style="whiteSpace=wrap;html=1;treeFolding=1;treeMoving=1;newEdgeStyle={&quot;edgeStyle&quot;:&quot;elbowEdgeStyle&quot;,&quot;startArrow&quot;:&quot;none&quot;,&quot;endArrow&quot;:&quot;none&quot;};" vertex="1" parent="b1h86Wo2CGf1PkXPqCOA-299">
          <mxGeometry x="140" y="170" width="120" height="40" as="geometry" />
        </mxCell>
        <mxCell id="b1h86Wo2CGf1PkXPqCOA-304" style="edgeStyle=elbowEdgeStyle;rounded=1;orthogonalLoop=1;jettySize=auto;html=1;startArrow=none;endArrow=none;entryX=0.5;entryY=0;entryDx=0;entryDy=0;curved=0;dashed=1;" edge="1" parent="b1h86Wo2CGf1PkXPqCOA-299" source="b1h86Wo2CGf1PkXPqCOA-305" target="b1h86Wo2CGf1PkXPqCOA-303">
          <mxGeometry relative="1" as="geometry" />
        </mxCell>
        <mxCell id="b1h86Wo2CGf1PkXPqCOA-305" value="3x Iron Ingot" style="whiteSpace=wrap;html=1;treeFolding=1;treeMoving=1;newEdgeStyle={&quot;edgeStyle&quot;:&quot;elbowEdgeStyle&quot;,&quot;startArrow&quot;:&quot;none&quot;,&quot;endArrow&quot;:&quot;none&quot;};" vertex="1" parent="b1h86Wo2CGf1PkXPqCOA-299">
          <mxGeometry x="140" y="60" width="120" height="40" as="geometry" />
        </mxCell>
        <mxCell id="b1h86Wo2CGf1PkXPqCOA-306" value="3x Iron Bars" style="whiteSpace=wrap;html=1;treeFolding=1;treeMoving=1;newEdgeStyle={&quot;edgeStyle&quot;:&quot;elbowEdgeStyle&quot;,&quot;startArrow&quot;:&quot;none&quot;,&quot;endArrow&quot;:&quot;none&quot;};" vertex="1" parent="b1h86Wo2CGf1PkXPqCOA-299">
          <mxGeometry x="270" y="60" width="120" height="40" as="geometry" />
        </mxCell>
        <mxCell id="b1h86Wo2CGf1PkXPqCOA-307" value="" style="endArrow=none;dashed=1;html=1;rounded=0;exitX=0.75;exitY=0;exitDx=0;exitDy=0;" edge="1" parent="b1h86Wo2CGf1PkXPqCOA-299" source="b1h86Wo2CGf1PkXPqCOA-303">
          <mxGeometry width="50" height="50" relative="1" as="geometry">
            <mxPoint x="190" y="190" as="sourcePoint" />
            <mxPoint x="230" y="130" as="targetPoint" />
          </mxGeometry>
        </mxCell>
        <mxCell id="b1h86Wo2CGf1PkXPqCOA-308" value="&lt;span style=&quot;font-size: 20px;&quot;&gt;&lt;b&gt;Filtration Machine&lt;/b&gt;&lt;/span&gt;" style="whiteSpace=wrap;html=1;aspect=fixed;" vertex="1" parent="1">
          <mxGeometry x="3415" y="1280" width="130" height="130" as="geometry" />
        </mxCell>
        <mxCell id="b1h86Wo2CGf1PkXPqCOA-309" value="&lt;span style=&quot;font-size: 20px;&quot;&gt;&lt;b&gt;Mechanism&lt;/b&gt;&lt;/span&gt;" style="ellipse;whiteSpace=wrap;html=1;aspect=fixed;" vertex="1" parent="1">
          <mxGeometry x="3290" y="770" width="110" height="110" as="geometry" />
        </mxCell>
        <mxCell id="b1h86Wo2CGf1PkXPqCOA-310" style="edgeStyle=orthogonalEdgeStyle;rounded=0;orthogonalLoop=1;jettySize=auto;html=1;" edge="1" parent="1" source="b1h86Wo2CGf1PkXPqCOA-311" target="b1h86Wo2CGf1PkXPqCOA-299">
          <mxGeometry relative="1" as="geometry" />
        </mxCell>
        <mxCell id="b1h86Wo2CGf1PkXPqCOA-311" value="&lt;span style=&quot;font-size: 20px;&quot;&gt;&lt;b&gt;Iron Ingot&lt;/b&gt;&lt;/span&gt;" style="ellipse;whiteSpace=wrap;html=1;aspect=fixed;" vertex="1" parent="1">
          <mxGeometry x="3424.5" y="770" width="110" height="110" as="geometry" />
        </mxCell>
        <mxCell id="b1h86Wo2CGf1PkXPqCOA-312" style="edgeStyle=orthogonalEdgeStyle;rounded=0;orthogonalLoop=1;jettySize=auto;html=1;entryX=0.75;entryY=0;entryDx=0;entryDy=0;" edge="1" parent="1" source="b1h86Wo2CGf1PkXPqCOA-313" target="b1h86Wo2CGf1PkXPqCOA-299">
          <mxGeometry relative="1" as="geometry" />
        </mxCell>
        <mxCell id="b1h86Wo2CGf1PkXPqCOA-313" value="&lt;span style=&quot;font-size: 20px;&quot;&gt;&lt;b&gt;Iron Bars&lt;/b&gt;&lt;/span&gt;" style="ellipse;whiteSpace=wrap;html=1;aspect=fixed;" vertex="1" parent="1">
          <mxGeometry x="3554.5" y="770" width="110" height="110" as="geometry" />
        </mxCell>
        <mxCell id="b1h86Wo2CGf1PkXPqCOA-314" style="edgeStyle=orthogonalEdgeStyle;rounded=0;orthogonalLoop=1;jettySize=auto;html=1;entryX=0.241;entryY=0.007;entryDx=0;entryDy=0;entryPerimeter=0;" edge="1" parent="1" source="b1h86Wo2CGf1PkXPqCOA-309" target="b1h86Wo2CGf1PkXPqCOA-299">
          <mxGeometry relative="1" as="geometry" />
        </mxCell>
        <mxCell id="b1h86Wo2CGf1PkXPqCOA-316" style="edgeStyle=orthogonalEdgeStyle;rounded=0;orthogonalLoop=1;jettySize=auto;html=1;" edge="1" parent="1" source="b1h86Wo2CGf1PkXPqCOA-317" target="b1h86Wo2CGf1PkXPqCOA-326">
          <mxGeometry relative="1" as="geometry" />
        </mxCell>
        <mxCell id="b1h86Wo2CGf1PkXPqCOA-317" value="Crafting Table" style="swimlane;startSize=30;horizontal=1;containerType=tree;" vertex="1" parent="1">
          <mxGeometry x="3730" y="960" width="400" height="240" as="geometry" />
        </mxCell>
        <mxCell id="b1h86Wo2CGf1PkXPqCOA-318" value="" style="edgeStyle=elbowEdgeStyle;elbow=vertical;sourcePerimeterSpacing=0;targetPerimeterSpacing=0;startArrow=none;endArrow=none;rounded=0;curved=0;strokeColor=default;dashed=1;entryX=0.25;entryY=0;entryDx=0;entryDy=0;" edge="1" parent="b1h86Wo2CGf1PkXPqCOA-317" source="b1h86Wo2CGf1PkXPqCOA-319" target="b1h86Wo2CGf1PkXPqCOA-321">
          <mxGeometry relative="1" as="geometry">
            <Array as="points">
              <mxPoint x="70" y="130" />
            </Array>
          </mxGeometry>
        </mxCell>
        <mxCell id="b1h86Wo2CGf1PkXPqCOA-319" value="3x Mechanism" style="whiteSpace=wrap;html=1;treeFolding=1;treeMoving=1;newEdgeStyle={&quot;edgeStyle&quot;:&quot;elbowEdgeStyle&quot;,&quot;startArrow&quot;:&quot;none&quot;,&quot;endArrow&quot;:&quot;none&quot;};" vertex="1" parent="b1h86Wo2CGf1PkXPqCOA-317">
          <mxGeometry x="10" y="60" width="120" height="40" as="geometry" />
        </mxCell>
        <mxCell id="b1h86Wo2CGf1PkXPqCOA-320" style="edgeStyle=elbowEdgeStyle;rounded=0;orthogonalLoop=1;jettySize=auto;html=1;startArrow=none;endArrow=none;entryX=0.5;entryY=1;entryDx=0;entryDy=0;dashed=1;" edge="1" parent="b1h86Wo2CGf1PkXPqCOA-317" target="b1h86Wo2CGf1PkXPqCOA-324">
          <mxGeometry relative="1" as="geometry">
            <mxPoint x="230" y="130" as="sourcePoint" />
            <Array as="points">
              <mxPoint x="330" y="140" />
            </Array>
          </mxGeometry>
        </mxCell>
        <mxCell id="b1h86Wo2CGf1PkXPqCOA-321" value="1x Compressor" style="whiteSpace=wrap;html=1;treeFolding=1;treeMoving=1;newEdgeStyle={&quot;edgeStyle&quot;:&quot;elbowEdgeStyle&quot;,&quot;startArrow&quot;:&quot;none&quot;,&quot;endArrow&quot;:&quot;none&quot;};" vertex="1" parent="b1h86Wo2CGf1PkXPqCOA-317">
          <mxGeometry x="140" y="170" width="120" height="40" as="geometry" />
        </mxCell>
        <mxCell id="b1h86Wo2CGf1PkXPqCOA-322" style="edgeStyle=elbowEdgeStyle;rounded=1;orthogonalLoop=1;jettySize=auto;html=1;startArrow=none;endArrow=none;entryX=0.5;entryY=0;entryDx=0;entryDy=0;curved=0;dashed=1;" edge="1" parent="b1h86Wo2CGf1PkXPqCOA-317" source="b1h86Wo2CGf1PkXPqCOA-323" target="b1h86Wo2CGf1PkXPqCOA-321">
          <mxGeometry relative="1" as="geometry" />
        </mxCell>
        <mxCell id="b1h86Wo2CGf1PkXPqCOA-323" value="3x Iron Ingot" style="whiteSpace=wrap;html=1;treeFolding=1;treeMoving=1;newEdgeStyle={&quot;edgeStyle&quot;:&quot;elbowEdgeStyle&quot;,&quot;startArrow&quot;:&quot;none&quot;,&quot;endArrow&quot;:&quot;none&quot;};" vertex="1" parent="b1h86Wo2CGf1PkXPqCOA-317">
          <mxGeometry x="140" y="60" width="120" height="40" as="geometry" />
        </mxCell>
        <mxCell id="b1h86Wo2CGf1PkXPqCOA-324" value="3x Block of Iron" style="whiteSpace=wrap;html=1;treeFolding=1;treeMoving=1;newEdgeStyle={&quot;edgeStyle&quot;:&quot;elbowEdgeStyle&quot;,&quot;startArrow&quot;:&quot;none&quot;,&quot;endArrow&quot;:&quot;none&quot;};" vertex="1" parent="b1h86Wo2CGf1PkXPqCOA-317">
          <mxGeometry x="270" y="60" width="120" height="40" as="geometry" />
        </mxCell>
        <mxCell id="b1h86Wo2CGf1PkXPqCOA-325" value="" style="endArrow=none;dashed=1;html=1;rounded=0;exitX=0.75;exitY=0;exitDx=0;exitDy=0;" edge="1" parent="b1h86Wo2CGf1PkXPqCOA-317" source="b1h86Wo2CGf1PkXPqCOA-321">
          <mxGeometry width="50" height="50" relative="1" as="geometry">
            <mxPoint x="190" y="190" as="sourcePoint" />
            <mxPoint x="230" y="130" as="targetPoint" />
          </mxGeometry>
        </mxCell>
        <mxCell id="b1h86Wo2CGf1PkXPqCOA-326" value="&lt;span style=&quot;font-size: 20px;&quot;&gt;&lt;b&gt;Compressor&lt;/b&gt;&lt;/span&gt;" style="whiteSpace=wrap;html=1;aspect=fixed;" vertex="1" parent="1">
          <mxGeometry x="3865" y="1280" width="130" height="130" as="geometry" />
        </mxCell>
        <mxCell id="b1h86Wo2CGf1PkXPqCOA-327" value="&lt;span style=&quot;font-size: 20px;&quot;&gt;&lt;b&gt;Mechanism&lt;/b&gt;&lt;/span&gt;" style="ellipse;whiteSpace=wrap;html=1;aspect=fixed;" vertex="1" parent="1">
          <mxGeometry x="3740" y="770" width="110" height="110" as="geometry" />
        </mxCell>
        <mxCell id="b1h86Wo2CGf1PkXPqCOA-328" style="edgeStyle=orthogonalEdgeStyle;rounded=0;orthogonalLoop=1;jettySize=auto;html=1;" edge="1" parent="1" source="b1h86Wo2CGf1PkXPqCOA-329" target="b1h86Wo2CGf1PkXPqCOA-317">
          <mxGeometry relative="1" as="geometry" />
        </mxCell>
        <mxCell id="b1h86Wo2CGf1PkXPqCOA-329" value="&lt;span style=&quot;font-size: 20px;&quot;&gt;&lt;b&gt;Iron Ingot&lt;/b&gt;&lt;/span&gt;" style="ellipse;whiteSpace=wrap;html=1;aspect=fixed;" vertex="1" parent="1">
          <mxGeometry x="3874.5" y="770" width="110" height="110" as="geometry" />
        </mxCell>
        <mxCell id="b1h86Wo2CGf1PkXPqCOA-330" style="edgeStyle=orthogonalEdgeStyle;rounded=0;orthogonalLoop=1;jettySize=auto;html=1;entryX=0.75;entryY=0;entryDx=0;entryDy=0;" edge="1" parent="1" source="b1h86Wo2CGf1PkXPqCOA-331" target="b1h86Wo2CGf1PkXPqCOA-317">
          <mxGeometry relative="1" as="geometry" />
        </mxCell>
        <mxCell id="b1h86Wo2CGf1PkXPqCOA-331" value="&lt;span style=&quot;font-size: 20px;&quot;&gt;&lt;b&gt;Block of Iron&lt;/b&gt;&lt;/span&gt;" style="ellipse;whiteSpace=wrap;html=1;aspect=fixed;" vertex="1" parent="1">
          <mxGeometry x="4004.5" y="770" width="110" height="110" as="geometry" />
        </mxCell>
        <mxCell id="b1h86Wo2CGf1PkXPqCOA-332" style="edgeStyle=orthogonalEdgeStyle;rounded=0;orthogonalLoop=1;jettySize=auto;html=1;entryX=0.241;entryY=0.007;entryDx=0;entryDy=0;entryPerimeter=0;" edge="1" parent="1" source="b1h86Wo2CGf1PkXPqCOA-327" target="b1h86Wo2CGf1PkXPqCOA-317">
          <mxGeometry relative="1" as="geometry" />
        </mxCell>
      </root>
    </mxGraphModel>
  </diagram>
</mxfile>
